<svg xmlns="http://www.w3.org/2000/svg" xmlns:xlink="http://www.w3.org/1999/xlink" contentStyleType="text/css" data-diagram-type="DESCRIPTION" height="587px" preserveAspectRatio="none" style="width:890px;height:587px;background:#FFFFFF;" version="1.1" viewBox="0 0 890 587" width="890px" zoomAndPan="magnify"><title>Example Deployment Architecture</title><defs/><g><g class="title" data-source-line="1"><text fill="#000000" font-family="sans-serif" font-size="14" font-weight="bold" lengthAdjust="spacing" textLength="270.4639" x="302.7681" y="22.9951">Example Deployment Architecture</text></g><!--cluster Internet--><g class="cluster" data-entity="Internet" data-source-line="5" data-uid="ent0003" id="cluster_Internet"><path d="M279.3608,57.3768 C284.1179,49.176 289.2991,46.6779 296.2118,55.2054 C301.356,45.3638 309.05,46.078 314.8693,54.5165 C320.4394,47.2215 327.6777,49.0201 331.4169,56.5589 C335.0535,49.278 343.2786,48.1277 347.9673,55.3592 C352.3851,45.9536 360.4261,44.966 367.2881,52.5854 C374.1685,43.7192 380.6505,45.6566 385.1717,54.9134 C388.377,46.4188 395.4948,45.9774 400.9337,52.5817 C406.3915,43.2969 413.7152,45.1445 419.096,52.665 C424.2748,44.4173 432.0024,46.1509 435.9881,53.9231 C441.2938,44.713 449.2712,43.5098 455.0907,53.4094 C461.6897,47.4027 467.6234,47.5519 471.874,56.1147 C476.8589,49.3719 484.5549,48.8521 488.9296,56.8221 C494.1002,47.9278 501.2103,46.753 507.0549,56.1545 C511.5103,50.3385 518.3272,48.8209 522.0802,56.9133 C533.8985,60.8836 535.9323,68.9098 528.2394,78.4581 C540.5379,82.1727 542.0726,89.7391 534.0042,99.1327 C543.1606,108.3015 538.4899,115.7783 528.1885,119.3498 C534.3584,126.7353 533.3003,133.031 524.5705,137.4358 C518.8016,146.1371 513.0906,149.5858 505.0813,139.7972 C500.523,148.9074 494.5833,147.3841 488.7627,141.1387 C483.6269,149.0935 476.6008,150.6946 471.0529,141.566 C466.44,149.3233 459.7993,151.7863 453.6099,143.2542 C448.8973,152.1442 443.5552,152.6744 437.3862,144.6514 C432.126,153.7272 423.8742,152.4814 419.2135,144.0299 C414.8935,154.4562 406.3138,154.4992 400.3838,145.5984 C395.4707,153.3195 387.6307,153.5245 384.0058,144.3497 C378.0274,151.5087 372.3574,151.4886 367.0816,143.5614 C360.2694,152.3705 354.6702,151.1428 349.2888,142.1328 C343.6342,150.3481 337.1306,151.7408 330.3466,143.427 C324.5793,150.2466 317.9565,147.1664 315.3429,140.0353 C309.1141,148.5632 303.6173,146.6181 298.624,138.7736 C292.2466,146.81 284.8125,148.0294 279.8495,137.3544 C269.0695,135.3385 264.987,128.6499 272.5548,119.2437 C260.9381,114.7281 262.0899,107.4472 268.8125,99.4622 C261.0109,91.8478 260.6316,81.0529 273.181,77.4835 C265.3967,68.1709 267.9384,60.7861 279.3608,57.3768" fill="none" style="stroke:#181818;stroke-width:1;"/><text fill="#000000" font-family="sans-serif" font-size="14" font-weight="bold" lengthAdjust="spacing" textLength="64.4219" x="367.7891" y="73.8046">Internet</text></g><!--cluster Static Web Hosting (e.g., S3, Vercel, Netlify)--><g class="cluster" data-entity="Static Web Hosting .e.g.. S3. Vercel. Netlify." data-source-line="9" data-uid="ent0005" id="cluster_Static Web Hosting .e.g.. S3. Vercel. Netlify."><path d="M8.5,206.8095 L362.1387,206.8095 A3.75,3.75 0 0 1 364.6387,209.3095 L371.6387,229.1063 L605.5,229.1063 A2.5,2.5 0 0 1 608,231.6063 L608,311.3095 A2.5,2.5 0 0 1 605.5,313.8095 L8.5,313.8095 A2.5,2.5 0 0 1 6,311.3095 L6,209.3095 A2.5,2.5 0 0 1 8.5,206.8095" fill="none" style="stroke:#000000;stroke-width:1.5;"/><line style="stroke:#000000;stroke-width:1.5;" x1="6" x2="371.6387" y1="229.1063" y2="229.1063"/><text fill="#000000" font-family="sans-serif" font-size="14" font-weight="bold" lengthAdjust="spacing" textLength="352.6387" x="10" y="221.8046">Static Web Hosting (e.g., S3, Vercel, Netlify)</text></g><!--cluster Application Hosting (e.g., EC2, Docker, K8s)--><g class="cluster" data-entity="Application Hosting .e.g.. EC2. Docker. K8s." data-source-line="15" data-uid="ent0009" id="cluster_Application Hosting .e.g.. EC2. Docker. K8s."><path d="M244.5,362.8095 L592.9707,362.8095 A3.75,3.75 0 0 1 595.4707,365.3095 L602.4707,385.1063 L602.5,385.1063 A2.5,2.5 0 0 1 605,387.6063 L605,578.3095 A2.5,2.5 0 0 1 602.5,580.8095 L244.5,580.8095 A2.5,2.5 0 0 1 242,578.3095 L242,365.3095 A2.5,2.5 0 0 1 244.5,362.8095" fill="none" style="stroke:#000000;stroke-width:1.5;"/><line style="stroke:#000000;stroke-width:1.5;" x1="242" x2="602.4707" y1="385.1063" y2="385.1063"/><text fill="#000000" font-family="sans-serif" font-size="14" font-weight="bold" lengthAdjust="spacing" textLength="347.4707" x="246" y="377.8046">Application Hosting (e.g., EC2, Docker, K8s)</text></g><!--cluster app_server--><g class="cluster" data-entity="app_server" data-source-line="16" data-uid="ent0010" id="cluster_app_server"><polygon fill="none" points="378,423.8095,388,413.8095,573,413.8095,573,538.8095,563,548.8095,378,548.8095,378,423.8095" style="stroke:#181818;stroke-width:1;"/><line style="stroke:#181818;stroke-width:1;" x1="563" x2="573" y1="423.8095" y2="413.8095"/><line style="stroke:#181818;stroke-width:1;" x1="378" x2="563" y1="423.8095" y2="423.8095"/><line style="stroke:#181818;stroke-width:1;" x1="563" x2="563" y1="423.8095" y2="548.8095"/><text fill="#000000" font-family="sans-serif" font-size="14" font-weight="bold" lengthAdjust="spacing" textLength="83.1865" x="429.9067" y="439.8046">API Server</text></g><!--cluster Database Service (e.g., RDS)--><g class="cluster" data-entity="Database Service .e.g.. RDS." data-source-line="21" data-uid="ent0012" id="cluster_Database Service .e.g.. RDS."><path d="M629,421.8095 C629,411.8095 751,411.8095 751,411.8095 C751,411.8095 873,411.8095 873,421.8095 L873,530.8095 C873,540.8095 751,540.8095 751,540.8095 C751,540.8095 629,540.8095 629,530.8095 L629,421.8095" fill="none" style="stroke:#181818;stroke-width:1;"/><path d="M629,421.8095 C629,431.8095 751,431.8095 751,431.8095 C751,431.8095 873,431.8095 873,421.8095" fill="none" style="stroke:#181818;stroke-width:1;"/><text fill="#000000" font-family="sans-serif" font-size="14" font-weight="bold" lengthAdjust="spacing" textLength="228.0811" x="636.9595" y="446.8046">Database Service (e.g., RDS)</text></g><!--entity lb--><g class="entity" data-entity="lb" data-source-line="6" data-uid="ent0004" id="entity_lb"><polygon fill="#F1F1F1" points="286,92.8095,296,82.8095,514.2754,82.8095,514.2754,119.1063,504.2754,129.1063,286,129.1063,286,92.8095" style="stroke:#181818;stroke-width:0.5;"/><line style="stroke:#181818;stroke-width:0.5;" x1="504.2754" x2="514.2754" y1="92.8095" y2="82.8095"/><line style="stroke:#181818;stroke-width:0.5;" x1="286" x2="504.2754" y1="92.8095" y2="92.8095"/><line style="stroke:#181818;stroke-width:0.5;" x1="504.2754" x2="504.2754" y1="92.8095" y2="129.1063"/><text fill="#000000" font-family="sans-serif" font-size="14" lengthAdjust="spacing" textLength="188.2754" x="301" y="115.8046">DNS / CDN / Load Balancer</text></g><!--entity fe_center--><g class="entity" data-entity="fe_center" data-source-line="10" data-uid="ent0006" id="entity_fe_center"><rect fill="#F1F1F1" height="55.5938" rx="2.5" ry="2.5" style="stroke:#181818;stroke-width:0.5;" width="151.3105" x="22.5" y="241.8095"/><polygon fill="#F1F1F1" points="156.8105,246.8095,156.8105,260.8095,168.8105,260.8095,168.8105,252.8095,162.8105,246.8095,156.8105,246.8095" style="stroke:#181818;stroke-width:0.5;"/><line style="stroke:#181818;stroke-width:0.5;" x1="162.8105" x2="162.8105" y1="246.8095" y2="252.8095"/><line style="stroke:#181818;stroke-width:0.5;" x1="168.8105" x2="162.8105" y1="252.8095" y2="252.8095"/><text fill="#000000" font-family="sans-serif" font-size="14" lengthAdjust="spacing" textLength="121.3105" x="32.5" y="267.8046">Center Control UI</text><text fill="#000000" font-family="sans-serif" font-size="14" lengthAdjust="spacing" textLength="84.9775" x="32.5" y="284.1015">(Vue.js SPA)</text></g><!--entity fe_backoffice--><g class="entity" data-entity="fe_backoffice" data-source-line="11" data-uid="ent0007" id="entity_fe_backoffice"><rect fill="#F1F1F1" height="55.5938" rx="2.5" ry="2.5" style="stroke:#181818;stroke-width:0.5;" width="174.8672" x="208.5" y="241.8095"/><polygon fill="#F1F1F1" points="366.3672,246.8095,366.3672,260.8095,378.3672,260.8095,378.3672,252.8095,372.3672,246.8095,366.3672,246.8095" style="stroke:#181818;stroke-width:0.5;"/><line style="stroke:#181818;stroke-width:0.5;" x1="372.3672" x2="372.3672" y1="246.8095" y2="252.8095"/><line style="stroke:#181818;stroke-width:0.5;" x1="378.3672" x2="372.3672" y1="252.8095" y2="252.8095"/><text fill="#000000" font-family="sans-serif" font-size="14" lengthAdjust="spacing" textLength="144.8672" x="218.5" y="267.8046">Tenant Backoffice UI</text><text fill="#000000" font-family="sans-serif" font-size="14" lengthAdjust="spacing" textLength="84.9775" x="218.5" y="284.1015">(Vue.js SPA)</text></g><!--entity fe_storefront--><g class="entity" data-entity="fe_storefront" data-source-line="12" data-uid="ent0008" id="entity_fe_storefront"><rect fill="#F1F1F1" height="55.5938" rx="2.5" ry="2.5" style="stroke:#181818;stroke-width:0.5;" width="173.1787" x="418.5" y="241.8095"/><polygon fill="#F1F1F1" points="574.6787,246.8095,574.6787,260.8095,586.6787,260.8095,586.6787,252.8095,580.6787,246.8095,574.6787,246.8095" style="stroke:#181818;stroke-width:0.5;"/><line style="stroke:#181818;stroke-width:0.5;" x1="580.6787" x2="580.6787" y1="246.8095" y2="252.8095"/><line style="stroke:#181818;stroke-width:0.5;" x1="586.6787" x2="580.6787" y1="252.8095" y2="252.8095"/><text fill="#000000" font-family="sans-serif" font-size="14" lengthAdjust="spacing" textLength="143.1787" x="428.5" y="267.8046">Tenant Storefront UI</text><text fill="#000000" font-family="sans-serif" font-size="14" lengthAdjust="spacing" textLength="84.9775" x="428.5" y="284.1015">(Vue.js SPA)</text></g><!--entity backend--><g class="entity" data-entity="backend" data-source-line="17" data-uid="ent0011" id="entity_backend"><rect fill="#F1F1F1" height="62.5938" rx="2.5" ry="2.5" style="stroke:#181818;stroke-width:0.5;" width="126.96" x="421.5" y="461.8095"/><rect fill="#F1F1F1" height="10" style="stroke:#181818;stroke-width:0.5;" width="15" x="528.46" y="466.8095"/><rect fill="#F1F1F1" height="2" style="stroke:#181818;stroke-width:0.5;" width="4" x="526.46" y="468.8095"/><rect fill="#F1F1F1" height="2" style="stroke:#181818;stroke-width:0.5;" width="4" x="526.46" y="472.8095"/><text fill="#000000" font-family="sans-serif" font-size="14" lengthAdjust="spacing" textLength="86.96" x="436.5" y="494.8046">Backend API</text><text fill="#000000" font-family="sans-serif" font-size="14" lengthAdjust="spacing" textLength="62.4258" x="436.5" y="511.1015">(Laravel)</text></g><!--entity db--><g class="entity" data-entity="db" data-source-line="22" data-uid="ent0013" id="entity_db"><rect fill="#F1F1F1" height="62.5938" rx="2.5" ry="2.5" style="stroke:#181818;stroke-width:0.5;" width="164.0518" x="645" y="461.8095"/><rect fill="#F1F1F1" height="10" style="stroke:#181818;stroke-width:0.5;" width="15" x="789.0518" y="466.8095"/><rect fill="#F1F1F1" height="2" style="stroke:#181818;stroke-width:0.5;" width="4" x="787.0518" y="468.8095"/><rect fill="#F1F1F1" height="2" style="stroke:#181818;stroke-width:0.5;" width="4" x="787.0518" y="472.8095"/><text fill="#000000" font-family="sans-serif" font-size="14" lengthAdjust="spacing" textLength="120.8457" x="660" y="494.8046">Shared Database</text><text fill="#000000" font-family="sans-serif" font-size="14" lengthAdjust="spacing" textLength="124.0518" x="660" y="511.1015">(MySQL/Postgres)</text></g><!--entity user--><g class="entity" data-entity="user" data-source-line="3" data-uid="ent0002" id="entity_user"><ellipse cx="206.1958" cy="76.3095" fill="#F1F1F1" rx="8" ry="8" style="stroke:#181818;stroke-width:0.5;"/><path d="M206.1958,84.3095 L206.1958,111.3095 M193.1958,92.3095 L219.1958,92.3095 M206.1958,111.3095 L193.1958,126.3095 M206.1958,111.3095 L219.1958,126.3095" fill="none" style="stroke:#181818;stroke-width:0.5;"/><text fill="#000000" font-family="sans-serif" font-size="14" lengthAdjust="spacing" textLength="90.3916" x="161" y="140.8046">User / Admin</text></g><!--link user to lb--><g class="link" data-entity-1="user" data-entity-2="lb" data-source-line="25" data-uid="lnk14" id="link_user_lb"><path d="M251.09,105.8095 C262.72,105.8095 268.36,105.8095 279.99,105.8095" fill="none" id="user-to-lb" style="stroke:#181818;stroke-width:1;"/><polygon fill="#181818" points="285.99,105.8095,276.99,101.8095,280.99,105.8095,276.99,109.8095,285.99,105.8095" style="stroke:#181818;stroke-width:1;"/></g><!--link lb to fe_center--><g class="link" data-entity-1="lb" data-entity-2="fe_center" data-source-line="27" data-uid="lnk15" id="link_lb_fe_center"><path d="M337.44,128.8195 C283.88,147.6995 214.93,172.1395 212,173.8095 C179.33,192.4495 151.1936,216.5902 129.3036,237.4502" fill="none" id="lb-to-fe_center" style="stroke:#181818;stroke-width:1;"/><polygon fill="#181818" points="124.96,241.5895,134.2349,238.2764,128.5797,238.1401,128.7159,232.4849,124.96,241.5895" style="stroke:#181818;stroke-width:1;"/><text fill="#000000" font-family="sans-serif" font-size="13" lengthAdjust="spacing" textLength="100.4009" x="213" y="186.8764">admin.gxy.com</text></g><!--link lb to fe_backoffice--><g class="link" data-entity-1="lb" data-entity-2="fe_backoffice" data-source-line="28" data-uid="lnk16" id="link_lb_fe_backoffice"><path d="M372.35,129.0395 C358.74,141.1195 342.95,157.0095 332,173.8095 C318.33,194.7895 310.4424,215.9731 304.6124,235.8031" fill="none" id="lb-to-fe_backoffice" style="stroke:#181818;stroke-width:1;"/><polygon fill="#181818" points="302.92,241.5595,309.2961,234.0531,304.3303,236.7625,301.621,231.7967,302.92,241.5595" style="stroke:#181818;stroke-width:1;"/><text fill="#000000" font-family="sans-serif" font-size="13" lengthAdjust="spacing" textLength="90.8857" x="333" y="186.8764">shop.gxy.com</text></g><!--link lb to fe_storefront--><g class="link" data-entity-1="lb" data-entity-2="fe_storefront" data-source-line="29" data-uid="lnk17" id="link_lb_fe_storefront"><path d="M414.38,128.9995 C433.42,158.3695 463.7067,205.1045 484.2067,236.7345" fill="none" id="lb-to-fe_storefront" style="stroke:#181818;stroke-width:1;"/><polygon fill="#181818" points="487.47,241.7695,485.9318,232.0415,484.7506,237.5736,479.2184,236.3925,487.47,241.7695" style="stroke:#181818;stroke-width:1;"/><text fill="#000000" font-family="sans-serif" font-size="13" lengthAdjust="spacing" textLength="90.1113" x="453" y="186.8764">my-store.com</text></g><!--link lb to app_server--><g class="link" data-entity-1="lb" data-entity-2="app_server" data-source-line="31" data-uid="lnk18" id="link_lb_app_server"><path d="M508.45,128.8695 C546.58,142.3995 585.49,164.1095 608,198.8095 C637.75,244.6695 642.56,279.4495 608,321.8095 C573.01,364.6995 540.73,338.5195 486,346.8095 C468.12,349.5195 418.04,342.2695 405,354.8095 C394.0575,365.3345 387.35,379.0063 383.4558,393.6388 C382.4822,397.297 381.6845,401.0151 381.0404,404.7592 C380.7183,406.6312 380.4347,408.5097 380.1867,410.3904 C380.0627,411.3307 380.6227,406.3097 380.5161,407.2506" fill="none" id="lb-to-app_server" style="stroke:#181818;stroke-width:1;"/><polygon fill="#181818" points="379.841,413.2125,384.8283,404.7197,380.4036,408.2443,376.8791,403.8196,379.841,413.2125" style="stroke:#181818;stroke-width:1;"/><text fill="#000000" font-family="sans-serif" font-size="13" lengthAdjust="spacing" textLength="79.498" x="633" y="274.3764">api.gxy.com</text></g><!--link fe_center to app_server--><g class="link" data-entity-1="fe_center" data-entity-2="app_server" data-source-line="33" data-uid="lnk19" id="link_fe_center_app_server"><path d="M133.31,297.9695 C171.165,327.0795 232.97,374.612 285.9788,415.3807 C312.4831,435.7651 336.7884,454.4585 354.8014,468.3127 C363.8079,475.2399 371.2413,480.9572 376.5899,485.0711 C376.9242,485.3282 377.2504,485.5791 377.5683,485.8236" fill="none" id="fe_center-app_server" style="stroke:#181818;stroke-width:1;"/><text fill="#000000" font-family="sans-serif" font-size="13" lengthAdjust="spacing" textLength="55.7388" x="192" y="342.8764">API Calls</text></g><!--link fe_backoffice to app_server--><g class="link" data-entity-1="fe_backoffice" data-entity-2="app_server" data-source-line="34" data-uid="lnk20" id="link_fe_backoffice_app_server"><path d="M307.04,297.9695 C318.865,327.0795 338.1775,374.612 354.7425,415.3807 C363.025,435.7651 370.6206,454.4585 376.25,468.3127 C376.6018,469.1786 376.946,470.0256 377.2822,470.8529 C377.4502,471.2666 377.6163,471.6753 377.7804,472.0791" fill="none" id="fe_backoffice-app_server" style="stroke:#181818;stroke-width:1;"/><text fill="#000000" font-family="sans-serif" font-size="13" lengthAdjust="spacing" textLength="55.7388" x="326" y="342.8764">API Calls</text></g><!--link fe_storefront to app_server--><g class="link" data-entity-1="fe_storefront" data-entity-2="app_server" data-source-line="35" data-uid="lnk21" id="link_fe_storefront_app_server"><path d="M459.66,297.8595 C439.63,312.2195 417.77,331.6895 405,354.8095 C397.6575,368.0995 392.7781,383.1757 389.5942,398.3542 C388.7982,402.1488 388.1082,405.9498 387.5122,409.7308 C387.3632,410.6761 387.22,411.6201 387.0826,412.5625 C387.0482,412.7981 387.0142,413.0336 386.9806,413.2689" fill="none" id="fe_storefront-app_server" style="stroke:#181818;stroke-width:1;"/><text fill="#000000" font-family="sans-serif" font-size="13" lengthAdjust="spacing" textLength="55.7388" x="422" y="342.8764">API Calls</text></g><!--link backend to db--><g class="link" data-entity-1="backend" data-entity-2="db" data-source-line="37" data-uid="lnk22" id="link_backend_db"><path d="M548.81,493.3095 C580.83,493.3095 606.85,493.3095 638.86,493.3095" fill="none" id="backend-to-db" style="stroke:#181818;stroke-width:1;"/><polygon fill="#181818" points="644.86,493.3095,635.86,489.3095,639.86,493.3095,635.86,497.3095,644.86,493.3095" style="stroke:#181818;stroke-width:1;"/></g><!--SRC=[ZP9HQzim4CVVzIaEFpNWkB2zZ3qCNBlGi2nayzg-38eidHsjiYGafQiP_UwJx2HEGikg1rkMVtVtr__E2oyHhfzfPyAxH2Drtw7oa5ks4HwPtreaX3AlBIIt3YrSGiuxeHAW3hRXW10czPP3ib0UhKAVm5y2OIdD4P9oLOMGebo5vr9J3bTKKiNG3WbaJLu8CPGzqZR0bQTUCBZ76cwqyqArS85PcwLGVKpX3Yr3cS8AlHHDFziNejQB9aY4fC2e0GgjlDKIRXU_rCNT5hFV3gfrFXjADlZ01kmizYSg6Yv-5RJefX4Ctmol3yZhAQfW5ZOsY7WpXJiW9_VFZP621G-qEZVWklYGGgdP8zeKldvoirERy_K2AhHFEr-fCGzk-DnHSJ7T6QrYTvDuIrGSGbWGkAIMFg4SrTNZho7g9QhZrDEQkjZB_IvMYWxjjFqeguESeoBLXbhai8yAXRxrrVVbvJhShBNendfy684uIJ2tejtu-PSu5aJMC0_RGxlWCoGqJbxMFlTPA9CS8LDB8kOsshn6JQv7gkldmy583HZNVrH0ZzoBHOsOaf59pqYVmR4F1PNI9UHKrZle8td_eyckIvDblFu7]--></g></svg>