<svg xmlns="http://www.w3.org/2000/svg" xmlns:xlink="http://www.w3.org/1999/xlink" contentStyleType="text/css" data-diagram-type="DESCRIPTION" height="213px" preserveAspectRatio="none" style="width:1036px;height:213px;background:#FFFFFF;" version="1.1" viewBox="0 0 1036 213" width="1036px" zoomAndPan="magnify"><defs/><g><!--cluster Backend--><g class="cluster" data-entity="Backend" data-source-line="20" data-uid="ent0005" id="cluster_Backend"><path d="M291.5,119 L359.7109,119 A3.75,3.75 0 0 1 362.2109,121.5 L369.2109,141.2969 L640.5,141.2969 A2.5,2.5 0 0 1 643,143.7969 L643,203.5 A2.5,2.5 0 0 1 640.5,206 L291.5,206 A2.5,2.5 0 0 1 289,203.5 L289,121.5 A2.5,2.5 0 0 1 291.5,119" fill="#FFFFFF" style="stroke:#000000;stroke-width:1;"/><line style="stroke:#000000;stroke-width:1;" x1="289" x2="369.2109" y1="141.2969" y2="141.2969"/><text fill="#000000" font-family="Verdana" font-size="14" font-weight="bold" lengthAdjust="spacing" textLength="67.2109" x="293" y="133.9951">Backend</text></g><!--entity API--><g class="entity" data-entity="API" data-source-line="21" data-uid="ent0006" id="entity_API"><rect fill="#FFFFFF" height="36.2969" rx="2.5" ry="2.5" style="stroke:#555555;stroke-width:1;" width="153.3965" x="305.5" y="154"/><text fill="#333333" font-family="Verdana" font-size="14" lengthAdjust="spacing" textLength="133.3965" x="315.5" y="176.9951">Event Collector API</text></g><!--entity ETL--><g class="entity" data-entity="ETL" data-source-line="22" data-uid="ent0007" id="entity_ETL"><rect fill="#FFFFFF" height="36.2969" rx="2.5" ry="2.5" style="stroke:#555555;stroke-width:1;" width="133.2236" x="493.5" y="154"/><text fill="#333333" font-family="Verdana" font-size="14" lengthAdjust="spacing" textLength="113.2236" x="503.5" y="176.9951">ETL/ELT Process</text></g><!--entity Storefront--><g class="entity" data-entity="Storefront" data-source-line="16" data-uid="ent0002" id="entity_Storefront"><rect fill="#FFFFFF" height="36.2969" rx="2.5" ry="2.5" style="stroke:#555555;stroke-width:1;" width="140.2988" x="12" y="154"/><text fill="#333333" font-family="Verdana" font-size="14" lengthAdjust="spacing" textLength="120.2988" x="22" y="176.9951">tenant-storefront</text></g><!--entity OLTP--><g class="entity" data-entity="OLTP" data-source-line="17" data-uid="ent0003" id="entity_OLTP"><path d="M375.5,21 C375.5,11 470.8193,11 470.8193,11 C470.8193,11 566.1387,11 566.1387,21 L566.1387,46.2969 C566.1387,56.2969 470.8193,56.2969 470.8193,56.2969 C470.8193,56.2969 375.5,56.2969 375.5,46.2969 L375.5,21" fill="#FFFFFF" style="stroke:#555555;stroke-width:1;"/><path d="M375.5,21 C375.5,31 470.8193,31 470.8193,31 C470.8193,31 566.1387,31 566.1387,21" fill="none" style="stroke:#555555;stroke-width:1;"/><text fill="#333333" font-family="Verdana" font-size="14" lengthAdjust="spacing" textLength="170.6387" x="385.5" y="47.9951">Transactional DB (OLTP)</text></g><!--entity DWH--><g class="entity" data-entity="DWH" data-source-line="18" data-uid="ent0004" id="entity_DWH"><path d="M833.946,158.1192 C837.8525,151.6624 841.5942,152.655 845.7001,157.9193 C848.8292,151.0535 852.9841,150.8423 857.8322,156.2152 C861.4446,149.0748 868.2816,148.4662 872.5056,155.5859 C876.5161,148.9725 881.6278,148.7116 885.6869,155.5381 C889.5873,149.999 893.213,150.1288 897.1304,155.5203 C901.7546,149.8894 905.8491,150.4853 910.0579,156.002 C912.5892,148.8983 919.0261,147.6967 923.5422,154.0067 C927.3922,149.2182 933.3171,148.0865 936.1301,155.1117 C940.3359,149.1542 946.7565,149.699 949.2309,156.8431 C953.2631,148.7263 959.1012,149.2923 964.5752,155.2739 C969.1669,148.9581 974.3563,149.7431 977.4103,156.7547 C981.256,151.64 985.0415,151.6439 988.6877,156.9702 C993.0891,150.4886 999.973,149.9872 1003.6388,157.7427 C1007.3032,151.3229 1011.6757,150.6402 1016.0896,157.0133 C1027.9414,158.2239 1029.118,164.579 1024.8556,174.0709 C1027.5281,182.3448 1024.8056,187.4263 1015.7335,188.0196 C1013.057,195.2133 1008.6328,196.1118 1003.4677,190.3814 C999.0572,195.8372 994.841,195.9385 990.3461,190.483 C986.618,197.0035 982.3893,197.6037 977.5227,191.6536 C973.9453,199.7025 969.2461,199.4281 963.318,194.1613 C959.8173,199.842 954.3252,200.2114 950.9746,194.0054 C947.6834,201.0805 942.1504,201.6503 937.2926,195.6439 C933.6588,202.4061 928.3266,202.4747 924.6116,195.7201 C919.9736,201.1116 916.0108,200.7943 912.4028,194.6318 C907.4566,202.6986 901.7739,200.8297 897.3904,194.0624 C893.189,200.7678 889.1411,199.9818 885.0685,193.9378 C880.1831,200.8617 875.176,200.7792 871.1937,193.0809 C867.0357,197.5362 862.1212,198.0984 859.5558,191.4166 C854.3034,196.7232 849.6178,197.7997 845.7223,189.9858 C841.1211,196.7161 834.6803,194.4172 832.3802,187.7023 C822.5384,187.1442 817.693,181.9804 822.9934,172.2336 C820.5051,162.5887 823.073,157.3961 833.946,158.1192" fill="#FFFFFF" style="stroke:#555555;stroke-width:1;"/><text fill="#333333" font-family="Verdana" font-size="14" lengthAdjust="spacing" textLength="169.1006" x="838.5" y="176.9951">Data Warehouse (OLAP)</text></g><!--link Storefront to API--><g class="link" data-entity-1="Storefront" data-entity-2="API" data-source-line="25" data-uid="lnk8" id="link_Storefront_API"><path d="M152.34,172 C198.23,172 252.14,172 299.26,172" fill="none" id="Storefront-to-API" style="stroke:#000000;stroke-width:1;"/><polygon fill="#000000" points="305.26,172,296.26,168,300.26,172,296.26,176,305.26,172" style="stroke:#000000;stroke-width:1;"/><text fill="#000000" font-family="Verdana" font-size="13" lengthAdjust="spacing" textLength="117.4507" x="170.25" y="165.0669">Behavioral Events</text></g><!--link API to OLTP--><g class="link" data-entity-1="API" data-entity-2="OLTP" data-source-line="26" data-uid="lnk9" id="link_API_OLTP"><path d="M370.43,153.77 C359.85,135.65 347.7,106.91 361,86 C369.2,73.1 376.3019,66.2334 389.8419,58.9134" fill="none" id="API-to-OLTP" style="stroke:#000000;stroke-width:1;"/><polygon fill="#000000" points="395.12,56.06,385.3006,56.8214,390.7216,58.4379,389.1052,63.8589,395.12,56.06" style="stroke:#000000;stroke-width:1;"/><text fill="#000000" font-family="Verdana" font-size="13" lengthAdjust="spacing" textLength="172.5991" x="362" y="99.0669">(Optional) Raw Events Log</text></g><!--link OLTP to ETL--><g class="link" data-entity-1="OLTP" data-entity-2="ETL" data-source-line="27" data-uid="lnk10" id="link_OLTP_ETL"><path d="M513.5489,59.5563 C524.7689,67.6363 531.26,74.25 539,86 C552.63,106.69 556.8685,129.5154 558.5485,147.7154" fill="none" id="OLTP-ETL" style="stroke:#000000;stroke-width:1;"/><polygon fill="#000000" points="508.68,56.05,513.6458,64.5553,512.7374,58.9719,518.3208,58.0635,508.68,56.05" style="stroke:#000000;stroke-width:1;"/><polygon fill="#000000" points="559.1,153.69,562.2558,144.3604,558.6404,148.7112,554.2897,145.0958,559.1,153.69" style="stroke:#000000;stroke-width:1;"/><text fill="#000000" font-family="Verdana" font-size="13" lengthAdjust="spacing" textLength="88.5054" x="548" y="99.0669">Extracts Data</text></g><!--link ETL to DWH--><g class="link" data-entity-1="ETL" data-entity-2="DWH" data-source-line="28" data-uid="lnk11" id="link_ETL_DWH"><path d="M626.58,172 C681.64,172 754.66,172 817.28,172" fill="none" id="ETL-to-DWH" style="stroke:#000000;stroke-width:1;"/><polygon fill="#000000" points="823.28,172,814.28,168,818.28,172,814.28,176,823.28,172" style="stroke:#000000;stroke-width:1;"/><text fill="#000000" font-family="Verdana" font-size="13" lengthAdjust="spacing" textLength="160.5449" x="645" y="165.0669">Loads Transformed Data</text></g><!--SRC=[bP11Qy9048Nl-okcwKKFqaFmKah1L4iB0QKDU9vcnoIusGcxgnPA_tidQwg29tF9vitt9k_jNQYf9UWCDbRvRMCxTDY2epAWhGp1Zm9vV8sQ3usjO8F6KzGoTfhS2njsS3-TJgFuoZOCKfgcwlTYfyQ0N-Z_LzvgBmtlz4rUTMwH1B9emyG7ThHnGYQ07ZvFd-gKBYaSMezbQDYYWNa6esLUhCRHq9_KCKao5mUiqL7DE_49DHke-VfDgGxBBLQoBvC3MPqCsIz2BVPa0qXc8vhadgtUer_ULsYHFopo0bQEI_8-OgBrBSybOFBSU-4HCgfntx2J0l4dNlMwZFi2CXyjksE_CNpWOM0Wvqf5u6aYgAmNSl4Td5o6b9AwgjTa90Lbb3Dg3_6wDknQqf7v0m00]--></g></svg>