<svg xmlns="http://www.w3.org/2000/svg" xmlns:xlink="http://www.w3.org/1999/xlink" contentStyleType="text/css" data-diagram-type="DESCRIPTION" height="589px" preserveAspectRatio="none" style="width:1431px;height:589px;background:#FFFFFF;" version="1.1" viewBox="0 0 1431 589" width="1431px" zoomAndPan="magnify"><title>Multi-Tenant Platform - Planes &amp; Main Services (Concept Level)</title><defs/><g><g class="title" data-source-line="1"><text fill="#000000" font-family="sans-serif" font-size="14" font-weight="bold" lengthAdjust="spacing" textLength="502.5098" x="457.7187" y="22.9951">Multi-Tenant Platform - Planes &amp; Main Services (Concept Level)</text></g><!--cluster Control Plane--><g class="cluster" data-entity="Control Plane" data-source-line="5" data-uid="ent0002" id="cluster_Control Plane"><path d="M195.54,189.5369 L303.2558,189.5369 A3.75,3.75 0 0 1 305.7558,192.0369 L312.7558,211.8337 L1141.54,211.8337 A2.5,2.5 0 0 1 1144.04,214.3337 L1144.04,274.3369 A2.5,2.5 0 0 1 1141.54,276.8369 L195.54,276.8369 A2.5,2.5 0 0 1 193.04,274.3369 L193.04,192.0369 A2.5,2.5 0 0 1 195.54,189.5369" fill="none" style="stroke:#000000;stroke-width:1.5;"/><line style="stroke:#000000;stroke-width:1.5;" x1="193.04" x2="312.7558" y1="211.8337" y2="211.8337"/><text fill="#000000" font-family="sans-serif" font-size="14" font-weight="bold" lengthAdjust="spacing" textLength="106.7158" x="197.04" y="204.532">Control Plane</text></g><!--cluster Data Plane--><g class="cluster" data-entity="Data Plane" data-source-line="12" data-uid="ent0007" id="cluster_Data Plane"><path d="M188.54,366.9869 L275.5908,366.9869 A3.75,3.75 0 0 1 278.0908,369.4869 L285.0908,389.2837 L431.54,389.2837 A2.5,2.5 0 0 1 434.04,391.7837 L434.04,580.0769 A2.5,2.5 0 0 1 431.54,582.5769 L188.54,582.5769 A2.5,2.5 0 0 1 186.04,580.0769 L186.04,369.4869 A2.5,2.5 0 0 1 188.54,366.9869" fill="none" style="stroke:#000000;stroke-width:1.5;"/><line style="stroke:#000000;stroke-width:1.5;" x1="186.04" x2="285.0908" y1="389.2837" y2="389.2837"/><text fill="#000000" font-family="sans-serif" font-size="14" font-weight="bold" lengthAdjust="spacing" textLength="86.0508" x="190.04" y="381.982">Data Plane</text></g><!--cluster Analytics Plane--><g class="cluster" data-entity="Analytics Plane" data-source-line="17" data-uid="ent0010" id="cluster_Analytics Plane"><path d="M637.54,366.9869 L759.6796,366.9869 A3.75,3.75 0 0 1 762.1796,369.4869 L769.1796,389.2837 L1023.54,389.2837 A2.5,2.5 0 0 1 1026.04,391.7837 L1026.04,580.0769 A2.5,2.5 0 0 1 1023.54,582.5769 L637.54,582.5769 A2.5,2.5 0 0 1 635.04,580.0769 L635.04,369.4869 A2.5,2.5 0 0 1 637.54,366.9869" fill="none" style="stroke:#000000;stroke-width:1.5;"/><line style="stroke:#000000;stroke-width:1.5;" x1="635.04" x2="769.1796" y1="389.2837" y2="389.2837"/><text fill="#000000" font-family="sans-serif" font-size="14" font-weight="bold" lengthAdjust="spacing" textLength="121.1396" x="639.04" y="381.982">Analytics Plane</text></g><!--entity Center-Tenant Management--><g class="entity" data-entity="Center-Tenant Management" data-source-line="6" data-uid="ent0003" id="entity_Center-Tenant Management"><rect fill="#F1F1F1" height="36.2969" rx="2.5" ry="2.5" style="stroke:#181818;stroke-width:0.5;" width="217.8252" x="705.13" y="224.5369"/><text fill="#000000" font-family="sans-serif" font-size="14" lengthAdjust="spacing" textLength="197.8252" x="715.13" y="247.532">Center-Tenant Management</text></g><!--entity Plan & Feature Management--><g class="entity" data-entity="Plan . Feature Management" data-source-line="7" data-uid="ent0004" id="entity_Plan . Feature Management"><rect fill="#F1F1F1" height="36.2969" rx="2.5" ry="2.5" style="stroke:#181818;stroke-width:0.5;" width="220.252" x="208.91" y="224.5369"/><text fill="#000000" font-family="sans-serif" font-size="14" lengthAdjust="spacing" textLength="200.252" x="218.91" y="247.532">Plan &amp; Feature Management</text></g><!--entity Platform Monitoring & Ops--><g class="entity" data-entity="Platform Monitoring . Ops" data-source-line="8" data-uid="ent0005" id="entity_Platform Monitoring . Ops"><rect fill="#F1F1F1" height="36.2969" rx="2.5" ry="2.5" style="stroke:#181818;stroke-width:0.5;" width="205.623" x="464.23" y="224.5369"/><text fill="#000000" font-family="sans-serif" font-size="14" lengthAdjust="spacing" textLength="185.623" x="474.23" y="247.532">Platform Monitoring &amp; Ops</text></g><!--entity Billing & Subscription--><g class="entity" data-entity="Billing . Subscription" data-source-line="9" data-uid="ent0006" id="entity_Billing . Subscription"><rect fill="#DDDDDD" height="36.2969" rx="2.5" ry="2.5" style="stroke:#181818;stroke-width:0.5;" width="169.7275" x="958.17" y="224.5369"/><text fill="#000000" font-family="sans-serif" font-size="14" lengthAdjust="spacing" textLength="149.7275" x="968.17" y="247.532">Billing &amp; Subscription</text></g><!--entity Tenant Application Services--><g class="entity" data-entity="Tenant Application Services" data-source-line="13" data-uid="ent0008" id="entity_Tenant Application Services"><rect fill="#F1F1F1" height="36.2969" rx="2.5" ry="2.5" style="stroke:#181818;stroke-width:0.5;" width="215.1387" x="202.47" y="401.9869"/><text fill="#000000" font-family="sans-serif" font-size="14" lengthAdjust="spacing" textLength="195.1387" x="212.47" y="424.982">Tenant Application Services</text></g><!--entity Shared Domain Services--><g class="entity" data-entity="Shared Domain Services" data-source-line="14" data-uid="ent0009" id="entity_Shared Domain Services"><rect fill="#F1F1F1" height="36.2969" rx="2.5" ry="2.5" style="stroke:#181818;stroke-width:0.5;" width="191.8555" x="214.11" y="530.2769"/><text fill="#000000" font-family="sans-serif" font-size="14" lengthAdjust="spacing" textLength="171.8555" x="224.11" y="553.272">Shared Domain Services</text></g><!--entity Ingestion & Logging--><g class="entity" data-entity="Ingestion . Logging" data-source-line="18" data-uid="ent0011" id="entity_Ingestion . Logging"><rect fill="#F1F1F1" height="36.2969" rx="2.5" ry="2.5" style="stroke:#181818;stroke-width:0.5;" width="160.2188" x="650.93" y="401.9869"/><text fill="#000000" font-family="sans-serif" font-size="14" lengthAdjust="spacing" textLength="140.2188" x="660.93" y="424.982">Ingestion &amp; Logging</text></g><!--entity ETL / ELT Processing--><g class="entity" data-entity="ETL . ELT Processing" data-source-line="19" data-uid="ent0012" id="entity_ETL . ELT Processing"><rect fill="#F1F1F1" height="36.2969" rx="2.5" ry="2.5" style="stroke:#181818;stroke-width:0.5;" width="163.7734" x="846.15" y="401.9869"/><text fill="#000000" font-family="sans-serif" font-size="14" lengthAdjust="spacing" textLength="143.7734" x="856.15" y="424.982">ETL / ELT Processing</text></g><!--entity Analytics & AI Services--><g class="entity" data-entity="Analytics . AI Services" data-source-line="20" data-uid="ent0013" id="entity_Analytics . AI Services"><rect fill="#F1F1F1" height="36.2969" rx="2.5" ry="2.5" style="stroke:#181818;stroke-width:0.5;" width="180.583" x="829.75" y="530.2769"/><text fill="#000000" font-family="sans-serif" font-size="14" lengthAdjust="spacing" textLength="160.583" x="839.75" y="553.272">Analytics &amp; AI Services</text></g><!--entity Admin--><g class="entity" data-entity="Admin" data-source-line="23" data-uid="ent0014" id="entity_Admin"><ellipse cx="638.0413" cy="51.2969" fill="#F1F1F1" rx="8" ry="8" style="stroke:#181818;stroke-width:0.5;"/><path d="M638.0413,59.2969 L638.0413,86.2969 M625.0413,67.2969 L651.0413,67.2969 M638.0413,86.2969 L625.0413,101.2969 M638.0413,86.2969 L651.0413,101.2969" fill="none" style="stroke:#181818;stroke-width:0.5;"/><text fill="#000000" font-family="sans-serif" font-size="14" lengthAdjust="spacing" textLength="108.6025" x="583.74" y="115.792">Platform Admin</text><text fill="#000000" font-family="sans-serif" font-size="14" lengthAdjust="spacing" textLength="76.8701" x="583.74" y="132.0889">(Center UI)</text></g><!--entity TenantUser--><g class="entity" data-entity="TenantUser" data-source-line="24" data-uid="ent0015" id="entity_TenantUser"><ellipse cx="90.0376" cy="204.8869" fill="#F1F1F1" rx="8" ry="8" style="stroke:#181818;stroke-width:0.5;"/><path d="M90.0376,212.8869 L90.0376,239.8869 M77.0376,220.8869 L103.0376,220.8869 M90.0376,239.8869 L77.0376,254.8869 M90.0376,239.8869 L103.0376,254.8869" fill="none" style="stroke:#181818;stroke-width:0.5;"/><text fill="#000000" font-family="sans-serif" font-size="14" lengthAdjust="spacing" textLength="85.3398" x="6" y="269.382">Tenant User</text><text fill="#000000" font-family="sans-serif" font-size="14" lengthAdjust="spacing" textLength="168.0752" x="6" y="285.6789">(Storefront / Backoffice)</text></g><!--link Admin to Center-Tenant Management--><g class="link" data-entity-1="Admin" data-entity-2="Center-Tenant Management" data-source-line="26" data-uid="lnk16" id="link_Admin_Center-Tenant Management"><path d="M690.84,135.5769 C725.47,165.4069 764.2648,198.8101 789.2148,220.3101" fill="none" id="Admin-to-Center-Tenant Management" style="stroke:#181818;stroke-width:1;"/><polygon fill="#181818" points="793.76,224.2269,789.5533,215.3216,789.9723,220.9629,784.331,221.3819,793.76,224.2269" style="stroke:#181818;stroke-width:1;"/></g><!--link Admin to Plan & Feature Management--><g class="link" data-entity-1="Admin" data-entity-2="Plan . Feature Management" data-source-line="27" data-uid="lnk17" id="link_Admin_Plan . Feature Management"><path d="M583.56,115.9769 C518.61,146.8469 417.249,195.011 361.289,221.611" fill="none" id="Admin-to-Plan &amp; Feature Management" style="stroke:#181818;stroke-width:1;"/><polygon fill="#181818" points="355.87,224.1869,365.7157,223.9357,360.3858,222.0403,362.2812,216.7105,355.87,224.1869" style="stroke:#181818;stroke-width:1;"/></g><!--link Admin to Platform Monitoring & Ops--><g class="link" data-entity-1="Admin" data-entity-2="Platform Monitoring . Ops" data-source-line="28" data-uid="lnk18" id="link_Admin_Platform Monitoring . Ops"><path d="M616.74,135.5769 C602.77,165.4069 587.8228,197.2924 577.7628,218.7924" fill="none" id="Admin-to-Platform Monitoring &amp; Ops" style="stroke:#181818;stroke-width:1;"/><polygon fill="#181818" points="575.22,224.2269,582.6573,217.7703,577.339,219.6981,575.4113,214.3799,575.22,224.2269" style="stroke:#181818;stroke-width:1;"/></g><!--link Admin to Billing & Subscription--><g class="link" data-entity-1="Admin" data-entity-2="Billing . Subscription" data-source-line="29" data-uid="lnk19" id="link_Admin_Billing . Subscription"><path d="M692.59,102.5069 C754.14,117.4469 856.56,145.1269 940.04,181.5369 C967.37,193.4569 991.4952,207.7488 1011.7952,220.8188" fill="none" id="Admin-to-Billing &amp; Subscription" style="stroke:#181818;stroke-width:1;"/><polygon fill="#181818" points="1016.84,224.0669,1011.4382,215.8316,1012.636,221.3602,1007.1074,222.558,1016.84,224.0669" style="stroke:#181818;stroke-width:1;"/></g><!--link TenantUser to Tenant Application Services--><g class="link" data-entity-1="TenantUser" data-entity-2="Tenant Application Services" data-source-line="31" data-uid="lnk20" id="link_TenantUser_Tenant Application Services"><path d="M147.27,289.3269 C193.23,325.9769 250.5988,371.7363 283.2188,397.7463" fill="none" id="TenantUser-to-Tenant Application Services" style="stroke:#181818;stroke-width:1;"/><polygon fill="#181818" points="287.91,401.4869,283.3669,392.7484,284.0006,398.3697,278.3794,399.0034,287.91,401.4869" style="stroke:#181818;stroke-width:1;"/></g><!--link Center-Tenant Management to Tenant Application Services--><g class="link" data-entity-1="Center-Tenant Management" data-entity-2="Tenant Application Services" data-source-line="33" data-uid="lnk21" id="link_Center-Tenant Management_Tenant Application Services"><path d="M757.51,261.2869 C721.05,274.1169 673.61,293.6769 636.04,318.9869 C619.36,330.2169 621.62,341.2269 604.04,350.9869 C547,382.6369 481.8275,398.6867 423.8375,407.7867" fill="none" id="Center-Tenant Management-to-Tenant Application Services" style="stroke:#181818;stroke-width:1;"/><polygon fill="#181818" points="417.91,408.7169,427.4213,411.2733,422.8496,407.9417,426.1811,403.37,417.91,408.7169" style="stroke:#181818;stroke-width:1;"/><text fill="#000000" font-family="sans-serif" font-size="13" lengthAdjust="spacing" textLength="103.0098" x="650.4558" y="332.0538">Tenant lifecycle</text><text fill="#000000" font-family="sans-serif" font-size="13" lengthAdjust="spacing" textLength="129.8413" x="637.04" y="347.1866">&amp; config commands</text></g><!--link Plan & Feature Management to Tenant Application Services--><g class="link" data-entity-1="Plan . Feature Management" data-entity-2="Tenant Application Services" data-source-line="34" data-uid="lnk22" id="link_Plan . Feature Management_Tenant Application Services"><path d="M315.43,261.2369 C312.51,276.4369 308.62,299.0569 307.04,318.9869 C305.91,333.1569 306.72,336.7669 307.04,350.9869 C307.42,368.1469 308.0162,381.7451 308.7362,395.4951" fill="none" id="Plan &amp; Feature Management-to-Tenant Application Services" style="stroke:#181818;stroke-width:1;"/><polygon fill="#181818" points="309.05,401.4869,312.5739,392.29,308.7885,396.4937,304.5848,392.7084,309.05,401.4869" style="stroke:#181818;stroke-width:1;"/><text fill="#000000" font-family="sans-serif" font-size="13" lengthAdjust="spacing" textLength="115.0386" x="308.04" y="332.0538">Effective features</text><text fill="#000000" font-family="sans-serif" font-size="13" lengthAdjust="spacing" textLength="69.7417" x="330.6884" y="347.1866">(pull/push)</text></g><!--link Platform Monitoring & Ops to Tenant Application Services--><g class="link" data-entity-1="Platform Monitoring . Ops" data-entity-2="Tenant Application Services" data-source-line="35" data-uid="lnk23" id="link_Platform Monitoring . Ops_Tenant Application Services"><path d="M541.56,261.2869 C520.4,276.1469 489.72,298.2569 464.04,318.9869 C447.38,332.4269 445.4,338.4569 428.04,350.9869 C401.37,370.2269 374.1782,385.851 350.0382,398.681" fill="none" id="Platform Monitoring &amp; Ops-to-Tenant Application Services" style="stroke:#181818;stroke-width:1;"/><polygon fill="#181818" points="344.74,401.4969,354.5645,400.8052,349.1552,399.1503,350.81,393.7409,344.74,401.4969" style="stroke:#181818;stroke-width:1;"/><text fill="#000000" font-family="sans-serif" font-size="13" lengthAdjust="spacing" textLength="81.5103" x="491.6272" y="332.0538">Ops controls</text><text fill="#000000" font-family="sans-serif" font-size="13" lengthAdjust="spacing" textLength="134.6846" x="465.04" y="347.1866">(suspend, read-only)</text></g><!--link Tenant Application Services to Shared Domain Services--><g class="link" data-entity-1="Tenant Application Services" data-entity-2="Shared Domain Services" data-source-line="37" data-uid="lnk24" id="link_Tenant Application Services_Shared Domain Services"><path d="M310.04,438.6969 C310.04,462.8269 310.04,499.9669 310.04,524.0169" fill="none" id="Tenant Application Services-to-Shared Domain Services" style="stroke:#181818;stroke-width:1;"/><polygon fill="#181818" points="310.04,530.0169,314.04,521.0169,310.04,525.0169,306.04,521.0169,310.04,530.0169" style="stroke:#181818;stroke-width:1;"/><text fill="#000000" font-family="sans-serif" font-size="13" lengthAdjust="spacing" textLength="156.5459" x="311.04" y="481.3438">Payments, notifications,</text><text fill="#000000" font-family="sans-serif" font-size="13" lengthAdjust="spacing" textLength="73.1313" x="352.7473" y="496.4766">media, etc.</text></g><!--link Tenant Application Services to Ingestion & Logging--><g class="link" data-entity-1="Tenant Application Services" data-entity-2="Ingestion . Logging" data-source-line="39" data-uid="lnk25" id="link_Tenant Application Services_Ingestion . Logging"><path d="M417.91,420.1269 C490.51,420.1269 578.67,420.1269 644.71,420.1269" fill="none" id="Tenant Application Services-to-Ingestion &amp; Logging" style="stroke:#181818;stroke-width:1;"/><polygon fill="#181818" points="650.71,420.1269,641.71,416.1269,645.71,420.1269,641.71,424.1269,650.71,420.1269" style="stroke:#181818;stroke-width:1;"/><text fill="#000000" font-family="sans-serif" font-size="13" lengthAdjust="spacing" textLength="197.6533" x="435.77" y="398.1938">Business &amp; operational events</text><text fill="#000000" font-family="sans-serif" font-size="13" lengthAdjust="spacing" textLength="162.8999" x="453.1467" y="413.3266">(tenant_id, metrics, logs)</text></g><!--link Center-Tenant Management to Ingestion & Logging--><g class="link" data-entity-1="Center-Tenant Management" data-entity-2="Ingestion . Logging" data-source-line="40" data-uid="lnk26" id="link_Center-Tenant Management_Ingestion . Logging"><path d="M808.98,261.2769 C802.45,282.9469 790.11,320.6269 775.04,350.9869 C766.08,369.0169 756.8579,383.2635 747.4079,396.6635" fill="none" id="Center-Tenant Management-to-Ingestion &amp; Logging" style="stroke:#181818;stroke-width:1;"/><polygon fill="#181818" points="743.95,401.5669,752.4058,396.5172,746.8316,397.4808,745.868,391.9066,743.95,401.5669" style="stroke:#181818;stroke-width:1;"/><text fill="#000000" font-family="sans-serif" font-size="13" lengthAdjust="spacing" textLength="103.0098" x="789.04" y="332.0538">Tenant lifecycle</text><text fill="#000000" font-family="sans-serif" font-size="13" lengthAdjust="spacing" textLength="101.9814" x="789.5542" y="347.1866">&amp; config events</text></g><!--link Shared Domain Services to Ingestion & Logging--><g class="link" data-entity-1="Shared Domain Services" data-entity-2="Ingestion . Logging" data-source-line="41" data-uid="lnk27" id="link_Shared Domain Services_Ingestion . Logging"><path d="M373.2,529.8769 C404.23,521.1569 442.15,510.3469 476.04,500.2769 C545.13,479.7469 618.649,456.7651 670.219,440.4651" fill="none" id="Shared Domain Services-to-Ingestion &amp; Logging" style="stroke:#181818;stroke-width:1;"/><polygon fill="#181818" points="675.94,438.6569,666.1529,437.5553,671.1725,440.1638,668.564,445.1833,675.94,438.6569" style="stroke:#181818;stroke-width:1;"/><text fill="#000000" font-family="sans-serif" font-size="13" lengthAdjust="spacing" textLength="182.9141" x="575.04" y="488.8438">Payment/notification events</text></g><!--link ETL / ELT Processing to Analytics & AI Services--><g class="link" data-entity-1="ETL . ELT Processing" data-entity-2="Analytics . AI Services" data-source-line="43" data-uid="lnk28" id="link_ETL . ELT Processing_Analytics . AI Services"><path d="M926.93,438.6969 C925.4,462.8269 923.0385,499.9788 921.5185,524.0288" fill="none" id="ETL / ELT Processing-to-Analytics &amp; AI Services" style="stroke:#181818;stroke-width:1;"/><polygon fill="#181818" points="921.14,530.0169,925.6997,521.2871,921.4554,525.0268,917.7156,520.7825,921.14,530.0169" style="stroke:#181818;stroke-width:1;"/></g><!--link Analytics & AI Services to Platform Monitoring & Ops--><g class="link" data-entity-1="Analytics . AI Services" data-entity-2="Platform Monitoring . Ops" data-source-line="44" data-uid="lnk29" id="link_Analytics . AI Services_Platform Monitoring . Ops"><path d="M946.63,529.8269 C972.73,510.8069 1010.88,477.8269 1027.04,438.2769 C1040.36,405.6569 1047.85,387.4269 1027.04,358.9869 C936.19,234.8269 837.14,326.9069 688.04,288.9869 C660.43,281.9569 635.982,273.0317 612.772,263.5217" fill="none" id="Analytics &amp; AI Services-to-Platform Monitoring &amp; Ops" style="stroke:#181818;stroke-width:1;"/><polygon fill="#181818" points="607.22,261.2469,614.0315,268.3605,611.8467,263.1426,617.0646,260.9578,607.22,261.2469" style="stroke:#181818;stroke-width:1;"/><text fill="#000000" font-family="sans-serif" font-size="13" lengthAdjust="spacing" textLength="147.0752" x="1040.04" y="424.6938">KPIs, alerts, anomalies</text></g><!--link Analytics & AI Services to Center-Tenant Management--><g class="link" data-entity-1="Analytics . AI Services" data-entity-2="Center-Tenant Management" data-source-line="45" data-uid="lnk30" id="link_Analytics . AI Services_Center-Tenant Management"><path d="M1010.68,545.0669 C1086.49,537.5769 1189.64,513.1569 1237.04,438.2769 C1255.89,408.5069 1258.01,387.3069 1237.04,358.9869 C1156.61,250.3269 1071.64,323.8969 941.04,288.9869 C912.88,281.4569 887.6767,272.6735 863.4567,263.4435" fill="none" id="Analytics &amp; AI Services-to-Center-Tenant Management" style="stroke:#181818;stroke-width:1;"/><polygon fill="#181818" points="857.85,261.3069,864.8356,268.2496,862.5222,263.0874,867.6844,260.7741,857.85,261.3069" style="stroke:#181818;stroke-width:1;"/><text fill="#000000" font-family="sans-serif" font-size="13" lengthAdjust="spacing" textLength="121.5894" x="1277.1989" y="417.1938">Recommendations</text><text fill="#000000" font-family="sans-serif" font-size="13" lengthAdjust="spacing" textLength="171.9072" x="1252.04" y="432.3266">(plan/feature suggestions)</text></g><!--SRC=[ZLHHYnen47xFhnWio0bQt- -XeAS5gLAftbCzZZJExeNBJfOaAqZfV-zaizufkAi-hSatttpppKo23WPXLPcWHriaIG7MHeRCkW96yPFGGnzMKXDiq1squlyFJvOKbW6MU40p4CA_QogbamKeMvIMaC8c79dOeGgISeD2b5AzonoXny71MPF8U_1N0Fn-uWXq9mKhIOmi-EmbNaOWQ_YECbGEhzmckIjBEbYdAMVmpzBNjrDjJ3hPL7-ySheCsj8BV9dLF_7lJDXC1dcXgf4pAKkZbOo17nxKv9itwN0FCrkSs_DoGJeXQOv1At_1lA0SVKtOXwNDSvPOCywtInZ3VBc5jRFCvKyNdpHzc2mkSqd5PKFlmuZ9lj2qeuTaAZml1ZsGFXsVm4rfpnuT8pTyXfdZnd3sAKktMSRqAIv18rA8cWD6eszTBJi3TRJk4jNMmZDKIok5-1IOW9rj4-t2RqV3O-C669sXEYg3E-hpq5EcypZxXQIz5nrbtvLZdZ5vq0U4B35uxb5P6JCkA_ys41s6tSNFmAWvRc5azfKlaVP3tbQv7raoHrxfReuwIyluSuArFCPg_H381fqryNwuemBtMWu1W_fwLuvhYy89fXLl1gy7dzeINHqg3V1pn5cvf50Jlsekgi3WU6-6O6pk1pVRtvAme-qfgMYreuksCMfyRjE9K5n_3H9VwtlGUdDhrLZDZ_M2VP86NMoT9Ax4QFItEDiTVOHV6BU2fojDG9nZternCzVWgxpnnG_-0m00]--></g></svg>