<svg xmlns="http://www.w3.org/2000/svg" xmlns:xlink="http://www.w3.org/1999/xlink" contentStyleType="text/css" data-diagram-type="DESCRIPTION" height="526px" preserveAspectRatio="none" style="width:908px;height:526px;background:#FFFFFF;" version="1.1" viewBox="0 0 908 526" width="908px" zoomAndPan="magnify"><title>Tenant E-Commerce - Main Components (Concept Level)</title><defs/><g><g class="title" data-source-line="1"><text fill="#000000" font-family="sans-serif" font-size="14" font-weight="bold" lengthAdjust="spacing" textLength="444.5273" x="224.7363" y="22.9951">Tenant E-Commerce - Main Components (Concept Level)</text></g><!--cluster Tenant Context--><g class="cluster" data-entity="Tenant Context" data-source-line="5" data-uid="ent0002" id="cluster_Tenant Context"><path d="M85.5,166.0969 L208.2617,166.0969 A3.75,3.75 0 0 1 210.7617,168.5969 L217.7617,188.3938 L369.5,188.3938 A2.5,2.5 0 0 1 372,190.8938 L372,381.1869 A2.5,2.5 0 0 1 369.5,383.6869 L85.5,383.6869 A2.5,2.5 0 0 1 83,381.1869 L83,168.5969 A2.5,2.5 0 0 1 85.5,166.0969" fill="none" style="stroke:#000000;stroke-width:1.5;"/><line style="stroke:#000000;stroke-width:1.5;" x1="83" x2="217.7617" y1="188.3938" y2="188.3938"/><text fill="#000000" font-family="sans-serif" font-size="14" font-weight="bold" lengthAdjust="spacing" textLength="121.7617" x="87" y="181.092">Tenant Context</text></g><!--cluster Shared Domain Services--><g class="cluster" data-entity="Shared Domain Services" data-source-line="12" data-uid="ent0006" id="cluster_Shared Domain Services"><path d="M8.5,432.6869 L201.7402,432.6869 A3.75,3.75 0 0 1 204.2402,435.1869 L211.2402,454.9838 L547.5,454.9838 A2.5,2.5 0 0 1 550,457.4838 L550,517.4869 A2.5,2.5 0 0 1 547.5,519.9869 L8.5,519.9869 A2.5,2.5 0 0 1 6,517.4869 L6,435.1869 A2.5,2.5 0 0 1 8.5,432.6869" fill="none" style="stroke:#000000;stroke-width:1.5;"/><line style="stroke:#000000;stroke-width:1.5;" x1="6" x2="211.2402" y1="454.9838" y2="454.9838"/><text fill="#000000" font-family="sans-serif" font-size="14" font-weight="bold" lengthAdjust="spacing" textLength="192.2402" x="10" y="447.682">Shared Domain Services</text></g><!--cluster Control Plane--><g class="cluster" data-entity="Control Plane" data-source-line="18" data-uid="ent0010" id="cluster_Control Plane"><path d="M398.5,166.0969 L506.2158,166.0969 A3.75,3.75 0 0 1 508.7158,168.5969 L515.7158,188.3938 L898.5,188.3938 A2.5,2.5 0 0 1 901,190.8938 L901,250.8969 A2.5,2.5 0 0 1 898.5,253.3969 L398.5,253.3969 A2.5,2.5 0 0 1 396,250.8969 L396,168.5969 A2.5,2.5 0 0 1 398.5,166.0969" fill="none" style="stroke:#000000;stroke-width:1.5;"/><line style="stroke:#000000;stroke-width:1.5;" x1="396" x2="515.7158" y1="188.3938" y2="188.3938"/><text fill="#000000" font-family="sans-serif" font-size="14" font-weight="bold" lengthAdjust="spacing" textLength="106.7158" x="400" y="181.092">Control Plane</text></g><!--entity Storefront UI--><g class="entity" data-entity="Storefront UI" data-source-line="6" data-uid="ent0003" id="entity_Storefront UI"><rect fill="#F1F1F1" height="36.2969" rx="2.5" ry="2.5" style="stroke:#181818;stroke-width:0.5;" width="109.749" x="246.13" y="201.0969"/><text fill="#000000" font-family="sans-serif" font-size="14" lengthAdjust="spacing" textLength="89.749" x="256.13" y="224.092">Storefront UI</text></g><!--entity Backoffice UI--><g class="entity" data-entity="Backoffice UI" data-source-line="7" data-uid="ent0004" id="entity_Backoffice UI"><rect fill="#F1F1F1" height="36.2969" rx="2.5" ry="2.5" style="stroke:#181818;stroke-width:0.5;" width="111.4375" x="99.28" y="201.0969"/><text fill="#000000" font-family="sans-serif" font-size="14" lengthAdjust="spacing" textLength="91.4375" x="109.28" y="224.092">Backoffice UI</text></g><!--entity TenantApp--><g class="entity" data-entity="TenantApp" data-source-line="9" data-uid="ent0005" id="entity_TenantApp"><rect fill="#F1F1F1" height="36.2969" rx="2.5" ry="2.5" style="stroke:#181818;stroke-width:0.5;" width="207.8447" x="148.08" y="331.3969"/><text fill="#000000" font-family="sans-serif" font-size="14" lengthAdjust="spacing" textLength="187.8447" x="158.08" y="354.392">Tenant Application Service</text></g><!--entity Payment Service--><g class="entity" data-entity="Payment Service" data-source-line="13" data-uid="ent0007" id="entity_Payment Service"><rect fill="#F1F1F1" height="36.2969" rx="2.5" ry="2.5" style="stroke:#181818;stroke-width:0.5;" width="138.1113" x="21.94" y="467.6869"/><text fill="#000000" font-family="sans-serif" font-size="14" lengthAdjust="spacing" textLength="118.1113" x="31.94" y="490.682">Payment Service</text></g><!--entity Notification Service--><g class="entity" data-entity="Notification Service" data-source-line="14" data-uid="ent0008" id="entity_Notification Service"><rect fill="#F1F1F1" height="36.2969" rx="2.5" ry="2.5" style="stroke:#181818;stroke-width:0.5;" width="156.5205" x="194.74" y="467.6869"/><text fill="#000000" font-family="sans-serif" font-size="14" lengthAdjust="spacing" textLength="136.5205" x="204.74" y="490.682">Notification Service</text></g><!--entity Media/File Service--><g class="entity" data-entity="Media.File Service" data-source-line="15" data-uid="ent0009" id="entity_Media.File Service"><rect fill="#F1F1F1" height="36.2969" rx="2.5" ry="2.5" style="stroke:#181818;stroke-width:0.5;" width="147.4014" x="386.3" y="467.6869"/><text fill="#000000" font-family="sans-serif" font-size="14" lengthAdjust="spacing" textLength="127.4014" x="396.3" y="490.682">Media/File Service</text></g><!--entity Center-Tenant Management--><g class="entity" data-entity="Center-Tenant Management" data-source-line="19" data-uid="ent0011" id="entity_Center-Tenant Management"><rect fill="#F1F1F1" height="36.2969" rx="2.5" ry="2.5" style="stroke:#181818;stroke-width:0.5;" width="217.8252" x="412.09" y="201.0969"/><text fill="#000000" font-family="sans-serif" font-size="14" lengthAdjust="spacing" textLength="197.8252" x="422.09" y="224.092">Center-Tenant Management</text></g><!--entity Plan & Feature Management--><g class="entity" data-entity="Plan . Feature Management" data-source-line="20" data-uid="ent0012" id="entity_Plan . Feature Management"><rect fill="#F1F1F1" height="36.2969" rx="2.5" ry="2.5" style="stroke:#181818;stroke-width:0.5;" width="220.252" x="664.87" y="201.0969"/><text fill="#000000" font-family="sans-serif" font-size="14" lengthAdjust="spacing" textLength="200.252" x="674.87" y="224.092">Plan &amp; Feature Management</text></g><!--entity TenantAdmin--><g class="entity" data-entity="TenantAdmin" data-source-line="23" data-uid="ent0013" id="entity_TenantAdmin"><ellipse cx="154.9956" cy="51.2969" fill="#F1F1F1" rx="8" ry="8" style="stroke:#181818;stroke-width:0.5;"/><path d="M154.9956,59.2969 L154.9956,86.2969 M141.9956,67.2969 L167.9956,67.2969 M154.9956,86.2969 L141.9956,101.2969 M154.9956,86.2969 L167.9956,101.2969" fill="none" style="stroke:#181818;stroke-width:0.5;"/><text fill="#000000" font-family="sans-serif" font-size="14" lengthAdjust="spacing" textLength="145.5713" x="82.21" y="115.792">Tenant Owner / Staff</text></g><!--entity Customer--><g class="entity" data-entity="Customer" data-source-line="24" data-uid="ent0014" id="entity_Customer"><ellipse cx="301.002" cy="51.2969" fill="#F1F1F1" rx="8" ry="8" style="stroke:#181818;stroke-width:0.5;"/><path d="M301.002,59.2969 L301.002,86.2969 M288.002,67.2969 L314.002,67.2969 M301.002,86.2969 L288.002,101.2969 M301.002,86.2969 L314.002,101.2969" fill="none" style="stroke:#181818;stroke-width:0.5;"/><text fill="#000000" font-family="sans-serif" font-size="14" lengthAdjust="spacing" textLength="68.0039" x="267" y="115.792">Customer</text></g><!--link Customer to Storefront UI--><g class="link" data-entity-1="Customer" data-entity-2="Storefront UI" data-source-line="27" data-uid="lnk15" id="link_Customer_Storefront UI"><path d="M301,119.5569 C301,146.0269 301,174.2569 301,194.6569" fill="none" id="Customer-to-Storefront UI" style="stroke:#181818;stroke-width:1;"/><polygon fill="#181818" points="301,200.6569,305,191.6569,301,195.6569,297,191.6569,301,200.6569" style="stroke:#181818;stroke-width:1;"/></g><!--link TenantAdmin to Backoffice UI--><g class="link" data-entity-1="TenantAdmin" data-entity-2="Backoffice UI" data-source-line="28" data-uid="lnk16" id="link_TenantAdmin_Backoffice UI"><path d="M155,119.5569 C155,146.0269 155,174.2569 155,194.6569" fill="none" id="TenantAdmin-to-Backoffice UI" style="stroke:#181818;stroke-width:1;"/><polygon fill="#181818" points="155,200.6569,159,191.6569,155,195.6569,151,191.6569,155,200.6569" style="stroke:#181818;stroke-width:1;"/></g><!--link Storefront UI to TenantApp--><g class="link" data-entity-1="Storefront UI" data-entity-2="TenantApp" data-source-line="31" data-uid="lnk17" id="link_Storefront UI_TenantApp"><path d="M294.29,237.8169 C284.91,262.3869 270.1104,301.1216 260.7704,325.5816" fill="none" id="Storefront UI-to-TenantApp" style="stroke:#181818;stroke-width:1;"/><polygon fill="#181818" points="258.63,331.1869,265.5774,324.2059,260.4136,326.5158,258.1037,321.3521,258.63,331.1869" style="stroke:#181818;stroke-width:1;"/></g><!--link Backoffice UI to TenantApp--><g class="link" data-entity-1="Backoffice UI" data-entity-2="TenantApp" data-source-line="32" data-uid="lnk18" id="link_Backoffice UI_TenantApp"><path d="M168.28,237.8169 C186.86,262.3869 216.7719,301.9405 235.2619,326.4005" fill="none" id="Backoffice UI-to-TenantApp" style="stroke:#181818;stroke-width:1;"/><polygon fill="#181818" points="238.88,331.1869,236.6437,321.5953,235.8649,327.1983,230.2619,326.4194,238.88,331.1869" style="stroke:#181818;stroke-width:1;"/></g><!--link TenantApp to Payment Service--><g class="link" data-entity-1="TenantApp" data-entity-2="Payment Service" data-source-line="35" data-uid="lnk19" id="link_TenantApp_Payment Service"><path d="M169.58,368.0569 C151.01,375.2769 132.76,385.4269 119,399.6869 C101.18,418.1769 95.4392,442.2526 93.0792,461.2626" fill="none" id="TenantApp-to-Payment Service" style="stroke:#181818;stroke-width:1;"/><polygon fill="#181818" points="92.34,467.2169,97.4183,458.7782,92.956,462.255,89.4793,457.7926,92.34,467.2169" style="stroke:#181818;stroke-width:1;"/><text fill="#000000" font-family="sans-serif" font-size="13" lengthAdjust="spacing" textLength="119.0566" x="120" y="412.7538">process payments</text></g><!--link TenantApp to Notification Service--><g class="link" data-entity-1="TenantApp" data-entity-2="Notification Service" data-source-line="36" data-uid="lnk20" id="link_TenantApp_Notification Service"><path d="M250.69,367.8169 C250.04,377.2369 249.32,389.0969 249,399.6869 C248.77,407.2469 247.73,409.2469 249,416.6869 C252.04,434.4969 256.9187,448.3025 262.6487,461.8225" fill="none" id="TenantApp-to-Notification Service" style="stroke:#181818;stroke-width:1;"/><polygon fill="#181818" points="264.99,467.3469,265.1609,457.4995,263.0389,462.7433,257.7952,460.6212,264.99,467.3469" style="stroke:#181818;stroke-width:1;"/><text fill="#000000" font-family="sans-serif" font-size="13" lengthAdjust="spacing" textLength="184.501" x="250" y="412.7538">order/customer notifications</text></g><!--link TenantApp to Media/File Service--><g class="link" data-entity-1="TenantApp" data-entity-2="Media.File Service" data-source-line="37" data-uid="lnk21" id="link_TenantApp_Media.File Service"><path d="M356.25,357.8969 C386.43,364.8769 417.09,377.4469 439,399.6869 C456.74,417.6969 460.2031,442.1577 460.5131,461.3477" fill="none" id="TenantApp-to-Media/File Service" style="stroke:#181818;stroke-width:1;"/><polygon fill="#181818" points="460.61,467.3469,464.4641,458.2834,460.5292,462.3475,456.4652,458.4127,460.61,467.3469" style="stroke:#181818;stroke-width:1;"/><text fill="#000000" font-family="sans-serif" font-size="13" lengthAdjust="spacing" textLength="162.7603" x="450" y="412.7538">product images, banners</text></g><!--link Center-Tenant Management to TenantApp--><g class="link" data-entity-1="Center-Tenant Management" data-entity-2="TenantApp" data-source-line="40" data-uid="lnk22" id="link_Center-Tenant Management_TenantApp"><path d="M484.16,237.8169 C432.79,262.3169 345.606,303.9049 294.236,328.3949" fill="none" id="Center-Tenant Management-to-TenantApp" style="stroke:#181818;stroke-width:1;"/><polygon fill="#181818" points="288.82,330.9769,298.6654,330.7145,293.3333,328.8252,295.2227,323.4932,288.82,330.9769" style="stroke:#181818;stroke-width:1;"/><text fill="#000000" font-family="sans-serif" font-size="13" lengthAdjust="spacing" textLength="111.5791" x="435.6035" y="282.4638">lifecycle &amp; config</text><text fill="#000000" font-family="sans-serif" font-size="13" lengthAdjust="spacing" textLength="160.7861" x="411" y="297.5966">(create/update/suspend)</text></g><!--link Plan & Feature Management to TenantApp--><g class="link" data-entity-1="Plan . Feature Management" data-entity-2="TenantApp" data-source-line="41" data-uid="lnk23" id="link_Plan . Feature Management_TenantApp"><path d="M740.36,237.7969 C702.09,256.4469 638.16,285.3869 580,301.3969 C506.64,321.5769 427.5076,332.8738 362.3776,339.6738" fill="none" id="Plan &amp; Feature Management-to-TenantApp" style="stroke:#181818;stroke-width:1;"/><polygon fill="#181818" points="356.41,340.2969,365.7767,343.3407,361.383,339.7777,364.946,335.3839,356.41,340.2969" style="stroke:#181818;stroke-width:1;"/><text fill="#000000" font-family="sans-serif" font-size="13" lengthAdjust="spacing" textLength="161.2939" x="668" y="282.4638">effective plan &amp; features</text><text fill="#000000" font-family="sans-serif" font-size="13" lengthAdjust="spacing" textLength="69.7417" x="713.7761" y="297.5966">(pull/push)</text></g><!--SRC=[VLF1Rjim3BthAuWSsWQeuNiF0xQi1GeiQm6lfwq7JgPIeJObI7AwODY_Zuhjn76wdGoHZ- -HV7IogI7uHeoSuBPOkRQbe0aAMADbaBTtJ9mYNAqSQ_89lj2McgLIyTMonu0jw15LfPsm1T89UTEGKXxrAsu85eE2S2JwbHRmMm5yhv8BP8B4uEd-EKS-2TuPOwM37CcXeVAZzutLcAnZg2Xi1V8C68VM9Ql-JEIg5mnKmsVNvYa6V1na7t7NIhC7cXpxwf8rS_wSM5DjiRopCjSXF5NA4mNNm6E3J8F0IjWf54FdQsH1PiKzOGR21TmHfYxGILPuKSjE3kjwU6CAK4ALq9Z5PDowjJnYLrrCJbpRvyU7KfVm5ANOvbO4AND5DMQXA3wShNz2tUVdPWZZFIG7HqVKZ6DVTtHanZ3B2j-HAVCEferkgGEqRsTk6zo03qw04NoVEYjvrrMfSw6cKEfn6po1dN6ySm2zSjtf1BOLz-8r_4GMgs8UwkGYvllwvscSBaSK6cj8xxJ8NiWFniPkVl2L3d8sL7Q-pf_OHKzSBzL_ZkgCbupm9hiby7sHwOkYqFkkQKhVnPVbNm00]--></g></svg>