<svg xmlns="http://www.w3.org/2000/svg" xmlns:xlink="http://www.w3.org/1999/xlink" contentStyleType="text/css" data-diagram-type="CLASS" height="798px" preserveAspectRatio="none" style="width:655px;height:798px;background:#FFFFFF;" version="1.1" viewBox="0 0 655 798" width="655px" zoomAndPan="magnify"><title>Tenant E-Commerce - Advanced Catalog &amp; Multi-Store (Logical)</title><defs/><g><g class="title" data-source-line="1"><text fill="#000000" font-family="sans-serif" font-size="14" font-weight="bold" lengthAdjust="spacing" textLength="500.8965" x="70.2781" y="22.9951">Tenant E-Commerce - Advanced Catalog &amp; Multi-Store (Logical)</text></g><!--class Tenant--><g class="entity" data-entity="Tenant" data-source-line="5" data-uid="ent0002" id="entity_Tenant"><rect fill="#F1F1F1" height="96.8906" rx="2.5" ry="2.5" style="stroke:#181818;stroke-width:0.5;" width="91.6934" x="286.08" y="44.2969"/><ellipse cx="305.9012" cy="60.2969" fill="#ADD1B2" rx="11" ry="11" style="stroke:#181818;stroke-width:1;"/><path d="M310.0106,66.2969 L302.2919,66.2969 L302.2919,53.9063 L310.0106,53.9063 L310.0106,56.0625 L304.745,56.0625 L304.745,58.7344 L309.5106,58.7344 L309.5106,60.8906 L304.745,60.8906 L304.745,64.1406 L310.0106,64.1406 L310.0106,66.2969 Z " fill="#000000"/><text fill="#000000" font-family="sans-serif" font-size="14" lengthAdjust="spacing" textLength="48.9795" x="320.9726" y="65.1436">Tenant</text><line style="stroke:#181818;stroke-width:0.5;" x1="287.08" x2="376.7734" y1="76.2969" y2="76.2969"/><g data-visibility-modifier="PUBLIC_FIELD"><ellipse cx="297.08" cy="89.9453" fill="none" rx="3" ry="3" style="stroke:#038048;stroke-width:1;"/></g><text fill="#000000" font-family="sans-serif" font-size="14" lengthAdjust="spacing" textLength="65.6934" x="306.08" y="93.292">tenant_id</text><line style="stroke:#181818;stroke-width:1;" x1="287.08" x2="376.7734" y1="100.5938" y2="100.5938"/><text fill="#000000" font-family="sans-serif" font-size="14" lengthAdjust="spacing" textLength="39.7031" x="292.08" y="117.5889">name</text><text fill="#000000" font-family="sans-serif" font-size="14" lengthAdjust="spacing" textLength="33.7627" x="292.08" y="133.8857">code</text></g><!--class Store--><g class="entity" data-entity="Store" data-source-line="12" data-uid="ent0003" id="entity_Store"><rect fill="#F1F1F1" height="178.375" rx="2.5" ry="2.5" style="stroke:#181818;stroke-width:0.5;" width="153.8506" x="7" y="201.1869"/><ellipse cx="22" cy="217.1869" fill="#ADD1B2" rx="11" ry="11" style="stroke:#181818;stroke-width:1;"/><path d="M26.1094,223.1869 L18.3906,223.1869 L18.3906,210.7963 L26.1094,210.7963 L26.1094,212.9525 L20.8438,212.9525 L20.8438,215.6244 L25.6094,215.6244 L25.6094,217.7806 L20.8438,217.7806 L20.8438,221.0306 L26.1094,221.0306 L26.1094,223.1869 Z " fill="#000000"/><text fill="#000000" font-family="sans-serif" font-size="14" lengthAdjust="spacing" textLength="121.8506" x="36" y="222.0336">Store / Storefront</text><line style="stroke:#181818;stroke-width:0.5;" x1="8" x2="159.8506" y1="233.1869" y2="233.1869"/><g data-visibility-modifier="PUBLIC_FIELD"><ellipse cx="18" cy="246.8353" fill="none" rx="3" ry="3" style="stroke:#038048;stroke-width:1;"/></g><text fill="#000000" font-family="sans-serif" font-size="14" lengthAdjust="spacing" textLength="55.4941" x="27" y="250.182">store_id</text><line style="stroke:#181818;stroke-width:1;" x1="8" x2="159.8506" y1="257.4838" y2="257.4838"/><text fill="#000000" font-family="sans-serif" font-size="14" lengthAdjust="spacing" textLength="65.6934" x="13" y="274.4789">tenant_id</text><text fill="#000000" font-family="sans-serif" font-size="14" lengthAdjust="spacing" textLength="33.7627" x="13" y="290.7757">code</text><text fill="#000000" font-family="sans-serif" font-size="14" lengthAdjust="spacing" textLength="39.7031" x="13" y="307.0726">name</text><text fill="#000000" font-family="sans-serif" font-size="14" lengthAdjust="spacing" textLength="52.4316" x="13" y="323.3695">domain</text><text fill="#000000" font-family="sans-serif" font-size="14" lengthAdjust="spacing" textLength="41.2344" x="13" y="339.6664">locale</text><text fill="#000000" font-family="sans-serif" font-size="14" lengthAdjust="spacing" textLength="117.8105" x="13" y="355.9632">default_currency</text><text fill="#000000" font-family="sans-serif" font-size="14" lengthAdjust="spacing" textLength="77.2324" x="13" y="372.2601">theme_key</text></g><!--class Product--><g class="entity" data-entity="Product" data-source-line="24" data-uid="ent0004" id="entity_Product"><rect fill="#F1F1F1" height="145.7813" rx="2.5" ry="2.5" style="stroke:#181818;stroke-width:0.5;" width="104.4287" x="195.71" y="217.4869"/><ellipse cx="219.1334" cy="233.4869" fill="#ADD1B2" rx="11" ry="11" style="stroke:#181818;stroke-width:1;"/><path d="M223.2428,239.4869 L215.5241,239.4869 L215.5241,227.0963 L223.2428,227.0963 L223.2428,229.2525 L217.9772,229.2525 L217.9772,231.9244 L222.7428,231.9244 L222.7428,234.0806 L217.9772,234.0806 L217.9772,237.3306 L223.2428,237.3306 L223.2428,239.4869 Z " fill="#000000"/><text fill="#000000" font-family="sans-serif" font-size="14" lengthAdjust="spacing" textLength="53.71" x="235.0053" y="238.3336">Product</text><line style="stroke:#181818;stroke-width:0.5;" x1="196.71" x2="299.1387" y1="249.4869" y2="249.4869"/><g data-visibility-modifier="PUBLIC_FIELD"><ellipse cx="206.71" cy="263.1353" fill="none" rx="3" ry="3" style="stroke:#038048;stroke-width:1;"/></g><text fill="#000000" font-family="sans-serif" font-size="14" lengthAdjust="spacing" textLength="73.9307" x="215.71" y="266.482">product_id</text><line style="stroke:#181818;stroke-width:1;" x1="196.71" x2="299.1387" y1="273.7838" y2="273.7838"/><text fill="#000000" font-family="sans-serif" font-size="14" lengthAdjust="spacing" textLength="65.6934" x="201.71" y="290.7789">tenant_id</text><text fill="#000000" font-family="sans-serif" font-size="14" lengthAdjust="spacing" textLength="24.2744" x="201.71" y="307.0757">sku</text><text fill="#000000" font-family="sans-serif" font-size="14" lengthAdjust="spacing" textLength="80.0762" x="201.71" y="323.3726">base_name</text><text fill="#000000" font-family="sans-serif" font-size="14" lengthAdjust="spacing" textLength="92.4287" x="201.71" y="339.6695">product_type</text><text fill="#000000" font-family="sans-serif" font-size="14" lengthAdjust="spacing" textLength="43.0186" x="201.71" y="355.9664">status</text></g><!--class Variant--><g class="entity" data-entity="Variant" data-source-line="34" data-uid="ent0005" id="entity_Variant"><rect fill="#F1F1F1" height="129.4844" rx="2.5" ry="2.5" style="stroke:#181818;stroke-width:0.5;" width="136.4531" x="180.7" y="447.7169"/><ellipse cx="195.7" cy="463.7169" fill="#ADD1B2" rx="11" ry="11" style="stroke:#181818;stroke-width:1;"/><path d="M199.8094,469.7169 L192.0906,469.7169 L192.0906,457.3263 L199.8094,457.3263 L199.8094,459.4825 L194.5438,459.4825 L194.5438,462.1544 L199.3094,462.1544 L199.3094,464.3106 L194.5438,464.3106 L194.5438,467.5606 L199.8094,467.5606 L199.8094,469.7169 Z " fill="#000000"/><text fill="#000000" font-family="sans-serif" font-size="14" lengthAdjust="spacing" textLength="104.4531" x="209.7" y="468.5636">ProductVariant</text><line style="stroke:#181818;stroke-width:0.5;" x1="181.7" x2="316.1531" y1="479.7169" y2="479.7169"/><g data-visibility-modifier="PUBLIC_FIELD"><ellipse cx="191.7" cy="493.3653" fill="none" rx="3" ry="3" style="stroke:#038048;stroke-width:1;"/></g><text fill="#000000" font-family="sans-serif" font-size="14" lengthAdjust="spacing" textLength="69.2275" x="200.7" y="496.712">variant_id</text><line style="stroke:#181818;stroke-width:1;" x1="181.7" x2="316.1531" y1="504.0138" y2="504.0138"/><text fill="#000000" font-family="sans-serif" font-size="14" lengthAdjust="spacing" textLength="65.6934" x="186.7" y="521.0089">tenant_id</text><text fill="#000000" font-family="sans-serif" font-size="14" lengthAdjust="spacing" textLength="73.9307" x="186.7" y="537.3057">product_id</text><text fill="#000000" font-family="sans-serif" font-size="14" lengthAdjust="spacing" textLength="24.2744" x="186.7" y="553.6026">sku</text><text fill="#000000" font-family="sans-serif" font-size="14" lengthAdjust="spacing" textLength="43.0186" x="186.7" y="569.8995">status</text></g><!--class AttrDef--><g class="entity" data-entity="AttrDef" data-source-line="43" data-uid="ent0006" id="entity_AttrDef"><rect fill="#F1F1F1" height="129.4844" rx="2.5" ry="2.5" style="stroke:#181818;stroke-width:0.5;" width="161.8555" x="335" y="225.6369"/><ellipse cx="350" cy="241.6369" fill="#ADD1B2" rx="11" ry="11" style="stroke:#181818;stroke-width:1;"/><path d="M354.1094,247.6369 L346.3906,247.6369 L346.3906,235.2463 L354.1094,235.2463 L354.1094,237.4025 L348.8438,237.4025 L348.8438,240.0744 L353.6094,240.0744 L353.6094,242.2306 L348.8438,242.2306 L348.8438,245.4806 L354.1094,245.4806 L354.1094,247.6369 Z " fill="#000000"/><text fill="#000000" font-family="sans-serif" font-size="14" lengthAdjust="spacing" textLength="129.8555" x="364" y="246.4836">AttributeDefinition</text><line style="stroke:#181818;stroke-width:0.5;" x1="336" x2="495.8555" y1="257.6369" y2="257.6369"/><g data-visibility-modifier="PUBLIC_FIELD"><ellipse cx="346" cy="271.2853" fill="none" rx="3" ry="3" style="stroke:#038048;stroke-width:1;"/></g><text fill="#000000" font-family="sans-serif" font-size="14" lengthAdjust="spacing" textLength="80.8418" x="355" y="274.632">attribute_id</text><line style="stroke:#181818;stroke-width:1;" x1="336" x2="495.8555" y1="281.9338" y2="281.9338"/><text fill="#000000" font-family="sans-serif" font-size="14" lengthAdjust="spacing" textLength="65.6934" x="341" y="298.9289">tenant_id</text><text fill="#000000" font-family="sans-serif" font-size="14" lengthAdjust="spacing" textLength="33.7627" x="341" y="315.2257">code</text><text fill="#000000" font-family="sans-serif" font-size="14" lengthAdjust="spacing" textLength="39.7031" x="341" y="331.5226">name</text><text fill="#000000" font-family="sans-serif" font-size="14" lengthAdjust="spacing" textLength="69.8086" x="341" y="347.8195">data_type</text></g><!--class AttrSet--><g class="entity" data-entity="AttrSet" data-source-line="52" data-uid="ent0007" id="entity_AttrSet"><rect fill="#F1F1F1" height="96.8906" rx="2.5" ry="2.5" style="stroke:#181818;stroke-width:0.5;" width="117.0527" x="531.4" y="241.9269"/><ellipse cx="546.4" cy="257.9269" fill="#ADD1B2" rx="11" ry="11" style="stroke:#181818;stroke-width:1;"/><path d="M550.5094,263.9269 L542.7906,263.9269 L542.7906,251.5363 L550.5094,251.5363 L550.5094,253.6925 L545.2438,253.6925 L545.2438,256.3644 L550.0094,256.3644 L550.0094,258.5206 L545.2438,258.5206 L545.2438,261.7706 L550.5094,261.7706 L550.5094,263.9269 Z " fill="#000000"/><text fill="#000000" font-family="sans-serif" font-size="14" lengthAdjust="spacing" textLength="85.0527" x="560.4" y="262.7736">AttributeSet</text><line style="stroke:#181818;stroke-width:0.5;" x1="532.4" x2="647.4527" y1="273.9269" y2="273.9269"/><g data-visibility-modifier="PUBLIC_FIELD"><ellipse cx="542.4" cy="287.5753" fill="none" rx="3" ry="3" style="stroke:#038048;stroke-width:1;"/></g><text fill="#000000" font-family="sans-serif" font-size="14" lengthAdjust="spacing" textLength="41.1729" x="551.4" y="290.922">set_id</text><line style="stroke:#181818;stroke-width:1;" x1="532.4" x2="647.4527" y1="298.2238" y2="298.2238"/><text fill="#000000" font-family="sans-serif" font-size="14" lengthAdjust="spacing" textLength="65.6934" x="537.4" y="315.2189">tenant_id</text><text fill="#000000" font-family="sans-serif" font-size="14" lengthAdjust="spacing" textLength="39.7031" x="537.4" y="331.5157">name</text></g><!--class AttrSetMember--><g class="entity" data-entity="AttrSetMember" data-source-line="59" data-uid="ent0008" id="entity_AttrSetMember"><rect fill="#F1F1F1" height="96.8906" rx="2.5" ry="2.5" style="stroke:#181818;stroke-width:0.5;" width="174.6387" x="462.61" y="464.0069"/><ellipse cx="477.61" cy="480.0069" fill="#ADD1B2" rx="11" ry="11" style="stroke:#181818;stroke-width:1;"/><path d="M481.7194,486.0069 L474.0006,486.0069 L474.0006,473.6163 L481.7194,473.6163 L481.7194,475.7725 L476.4538,475.7725 L476.4538,478.4444 L481.2194,478.4444 L481.2194,480.6006 L476.4538,480.6006 L476.4538,483.8506 L481.7194,483.8506 L481.7194,486.0069 Z " fill="#000000"/><text fill="#000000" font-family="sans-serif" font-size="14" lengthAdjust="spacing" textLength="142.6387" x="491.61" y="484.8536">AttributeSetMember</text><line style="stroke:#181818;stroke-width:0.5;" x1="463.61" x2="636.2487" y1="496.0069" y2="496.0069"/><line style="stroke:#181818;stroke-width:1;" x1="463.61" x2="636.2487" y1="504.0069" y2="504.0069"/><text fill="#000000" font-family="sans-serif" font-size="14" lengthAdjust="spacing" textLength="41.1729" x="468.61" y="521.002">set_id</text><text fill="#000000" font-family="sans-serif" font-size="14" lengthAdjust="spacing" textLength="80.8418" x="468.61" y="537.2989">attribute_id</text><text fill="#000000" font-family="sans-serif" font-size="14" lengthAdjust="spacing" textLength="71.6816" x="468.61" y="553.5957">sort_order</text></g><!--class AttrVal--><g class="entity" data-entity="AttrVal" data-source-line="66" data-uid="ent0009" id="entity_AttrVal"><rect fill="#F1F1F1" height="145.7813" rx="2.5" ry="2.5" style="stroke:#181818;stroke-width:0.5;" width="187.3057" x="215.27" y="645.3469"/><ellipse cx="230.27" cy="661.3469" fill="#ADD1B2" rx="11" ry="11" style="stroke:#181818;stroke-width:1;"/><path d="M234.3794,667.3469 L226.6606,667.3469 L226.6606,654.9563 L234.3794,654.9563 L234.3794,657.1125 L229.1138,657.1125 L229.1138,659.7844 L233.8794,659.7844 L233.8794,661.9406 L229.1138,661.9406 L229.1138,665.1906 L234.3794,665.1906 L234.3794,667.3469 Z " fill="#000000"/><text fill="#000000" font-family="sans-serif" font-size="14" lengthAdjust="spacing" textLength="155.3057" x="244.27" y="666.1936">ProductAttributeValue</text><line style="stroke:#181818;stroke-width:0.5;" x1="216.27" x2="401.5757" y1="677.3469" y2="677.3469"/><g data-visibility-modifier="PUBLIC_FIELD"><ellipse cx="226.27" cy="690.9953" fill="none" rx="3" ry="3" style="stroke:#038048;stroke-width:1;"/></g><text fill="#000000" font-family="sans-serif" font-size="14" lengthAdjust="spacing" textLength="58.0166" x="235.27" y="694.342">value_id</text><line style="stroke:#181818;stroke-width:1;" x1="216.27" x2="401.5757" y1="701.6438" y2="701.6438"/><text fill="#000000" font-family="sans-serif" font-size="14" lengthAdjust="spacing" textLength="65.6934" x="221.27" y="718.6389">tenant_id</text><text fill="#000000" font-family="sans-serif" font-size="14" lengthAdjust="spacing" textLength="73.9307" x="221.27" y="734.9357">product_id</text><text fill="#000000" font-family="sans-serif" font-size="14" lengthAdjust="spacing" textLength="69.2275" x="221.27" y="751.2326">variant_id</text><text fill="#000000" font-family="sans-serif" font-size="14" lengthAdjust="spacing" textLength="80.8418" x="221.27" y="767.5295">attribute_id</text><text fill="#000000" font-family="sans-serif" font-size="14" lengthAdjust="spacing" textLength="38.2402" x="221.27" y="783.8264">value</text></g><!--class StoreProduct--><g class="entity" data-entity="StoreProduct" data-source-line="76" data-uid="ent0010" id="entity_StoreProduct"><rect fill="#F1F1F1" height="145.7813" rx="2.5" ry="2.5" style="stroke:#181818;stroke-width:0.5;" width="123.0205" x="22.42" y="439.5669"/><ellipse cx="37.42" cy="455.5669" fill="#ADD1B2" rx="11" ry="11" style="stroke:#181818;stroke-width:1;"/><path d="M41.5294,461.5669 L33.8106,461.5669 L33.8106,449.1763 L41.5294,449.1763 L41.5294,451.3325 L36.2638,451.3325 L36.2638,454.0044 L41.0294,454.0044 L41.0294,456.1606 L36.2638,456.1606 L36.2638,459.4106 L41.5294,459.4106 L41.5294,461.5669 Z " fill="#000000"/><text fill="#000000" font-family="sans-serif" font-size="14" lengthAdjust="spacing" textLength="91.0205" x="51.42" y="460.4136">StoreProduct</text><line style="stroke:#181818;stroke-width:0.5;" x1="23.42" x2="144.4405" y1="471.5669" y2="471.5669"/><line style="stroke:#181818;stroke-width:1;" x1="23.42" x2="144.4405" y1="479.5669" y2="479.5669"/><text fill="#000000" font-family="sans-serif" font-size="14" lengthAdjust="spacing" textLength="65.6934" x="28.42" y="496.562">tenant_id</text><text fill="#000000" font-family="sans-serif" font-size="14" lengthAdjust="spacing" textLength="55.4941" x="28.42" y="512.8589">store_id</text><text fill="#000000" font-family="sans-serif" font-size="14" lengthAdjust="spacing" textLength="73.9307" x="28.42" y="529.1557">product_id</text><text fill="#000000" font-family="sans-serif" font-size="14" lengthAdjust="spacing" textLength="62.9316" x="28.42" y="545.4526">is_visible</text><text fill="#000000" font-family="sans-serif" font-size="14" lengthAdjust="spacing" textLength="100.208" x="28.42" y="561.7495">override_price</text><text fill="#000000" font-family="sans-serif" font-size="14" lengthAdjust="spacing" textLength="105.0684" x="28.42" y="578.0464">override_name</text></g><!--link Tenant to Store--><g class="link" data-entity-1="Tenant" data-entity-2="Store" data-source-line="86" data-uid="lnk11" id="link_Tenant_Store"><path codeLine="86" d="M290.77,149.5069 C290.77,181.7569 290.77,210.1269 290.77,210.1269 C290.77,210.1269 237.99,210.1269 179.24,210.1269" fill="none" id="Tenant-Store" style="stroke:#181818;stroke-width:1;"/><line style="stroke:#181818;stroke-width:1;" x1="286.77" x2="294.77" y1="145.5069" y2="145.5069"/><line style="stroke:#181818;stroke-width:1;" x1="286.77" x2="294.77" y1="148.5069" y2="148.5069"/><line style="stroke:#181818;stroke-width:1;" x1="290.77" x2="290.77" y1="149.5069" y2="141.5069"/><line style="stroke:#181818;stroke-width:1;" x1="169.24" x2="161.24" y1="210.1269" y2="216.1269"/><line style="stroke:#181818;stroke-width:1;" x1="169.24" x2="161.24" y1="210.1269" y2="204.1269"/><line style="stroke:#181818;stroke-width:1;" x1="169.24" x2="161.24" y1="210.1269" y2="210.1269"/><ellipse cx="175.24" cy="210.1269" fill="none" rx="4" ry="4" style="stroke:#181818;stroke-width:1;"/><text fill="#000000" font-family="sans-serif" font-size="13" lengthAdjust="spacing" textLength="22.9785" x="237.31" y="206.1938">has</text></g><!--link Tenant to Product--><g class="link" data-entity-1="Tenant" data-entity-2="Product" data-source-line="87" data-uid="lnk12" id="link_Tenant_Product"><path codeLine="87" d="M295.45,149.5969 C295.45,172.3469 295.45,173.8869 295.45,199.0569" fill="none" id="Tenant-Product" style="stroke:#181818;stroke-width:1;"/><line style="stroke:#181818;stroke-width:1;" x1="291.45" x2="299.45" y1="145.5969" y2="145.5969"/><line style="stroke:#181818;stroke-width:1;" x1="291.45" x2="299.45" y1="148.5969" y2="148.5969"/><line style="stroke:#181818;stroke-width:1;" x1="295.45" x2="295.45" y1="149.5969" y2="141.5969"/><line style="stroke:#181818;stroke-width:1;" x1="295.45" x2="301.45" y1="209.0569" y2="217.0569"/><line style="stroke:#181818;stroke-width:1;" x1="295.45" x2="289.45" y1="209.0569" y2="217.0569"/><line style="stroke:#181818;stroke-width:1;" x1="295.45" x2="295.45" y1="209.0569" y2="217.0569"/><ellipse cx="295.45" cy="203.0569" fill="none" rx="4" ry="4" style="stroke:#181818;stroke-width:1;"/><text fill="#000000" font-family="sans-serif" font-size="13" lengthAdjust="spacing" textLength="33.5981" x="261.45" y="175.3938">owns</text></g><!--link Product to Variant--><g class="link" data-entity-1="Product" data-entity-2="Variant" data-source-line="88" data-uid="lnk13" id="link_Product_Variant"><path codeLine="88" d="M265.33,371.7069 C265.33,398.7469 265.33,403.1669 265.33,429.4169" fill="none" id="Product-Variant" style="stroke:#181818;stroke-width:1;"/><line style="stroke:#181818;stroke-width:1;" x1="261.33" x2="269.33" y1="367.7069" y2="367.7069"/><line style="stroke:#181818;stroke-width:1;" x1="261.33" x2="269.33" y1="370.7069" y2="370.7069"/><line style="stroke:#181818;stroke-width:1;" x1="265.33" x2="265.33" y1="371.7069" y2="363.7069"/><line style="stroke:#181818;stroke-width:1;" x1="265.33" x2="271.33" y1="439.4169" y2="447.4169"/><line style="stroke:#181818;stroke-width:1;" x1="265.33" x2="259.33" y1="439.4169" y2="447.4169"/><line style="stroke:#181818;stroke-width:1;" x1="265.33" x2="265.33" y1="439.4169" y2="447.4169"/><ellipse cx="265.33" cy="433.4169" fill="none" rx="4" ry="4" style="stroke:#181818;stroke-width:1;"/><text fill="#000000" font-family="sans-serif" font-size="13" lengthAdjust="spacing" textLength="22.9785" x="242.33" y="401.6338">has</text></g><!--link Tenant to AttrDef--><g class="link" data-entity-1="Tenant" data-entity-2="AttrDef" data-source-line="90" data-uid="lnk14" id="link_Tenant_AttrDef"><path codeLine="90" d="M356.38,149.5969 C356.38,174.8569 356.38,180.0369 356.38,207.3069" fill="none" id="Tenant-AttrDef" style="stroke:#181818;stroke-width:1;"/><line style="stroke:#181818;stroke-width:1;" x1="352.38" x2="360.38" y1="145.5969" y2="145.5969"/><line style="stroke:#181818;stroke-width:1;" x1="352.38" x2="360.38" y1="148.5969" y2="148.5969"/><line style="stroke:#181818;stroke-width:1;" x1="356.38" x2="356.38" y1="149.5969" y2="141.5969"/><line style="stroke:#181818;stroke-width:1;" x1="356.38" x2="362.38" y1="217.3069" y2="225.3069"/><line style="stroke:#181818;stroke-width:1;" x1="356.38" x2="350.38" y1="217.3069" y2="225.3069"/><line style="stroke:#181818;stroke-width:1;" x1="356.38" x2="356.38" y1="217.3069" y2="225.3069"/><ellipse cx="356.38" cy="211.3069" fill="none" rx="4" ry="4" style="stroke:#181818;stroke-width:1;"/><text fill="#000000" font-family="sans-serif" font-size="13" lengthAdjust="spacing" textLength="47.4487" x="308.38" y="179.5238">defines</text></g><!--link Tenant to AttrSet--><g class="link" data-entity-1="Tenant" data-entity-2="AttrSet" data-source-line="91" data-uid="lnk15" id="link_Tenant_AttrSet"><path codeLine="91" d="M386.05,93.1269 C460.26,93.1269 589.93,93.1269 589.93,93.1269 C589.93,93.1269 589.93,165.2069 589.93,223.6169" fill="none" id="Tenant-AttrSet" style="stroke:#181818;stroke-width:1;"/><line style="stroke:#181818;stroke-width:1;" x1="382.05" x2="382.05" y1="97.1269" y2="89.1269"/><line style="stroke:#181818;stroke-width:1;" x1="385.05" x2="385.05" y1="97.1269" y2="89.1269"/><line style="stroke:#181818;stroke-width:1;" x1="386.05" x2="378.05" y1="93.1269" y2="93.1269"/><line style="stroke:#181818;stroke-width:1;" x1="589.93" x2="595.93" y1="233.6169" y2="241.6169"/><line style="stroke:#181818;stroke-width:1;" x1="589.93" x2="583.93" y1="233.6169" y2="241.6169"/><line style="stroke:#181818;stroke-width:1;" x1="589.93" x2="589.93" y1="233.6169" y2="241.6169"/><ellipse cx="589.93" cy="227.6169" fill="none" rx="4" ry="4" style="stroke:#181818;stroke-width:1;"/><text fill="#000000" font-family="sans-serif" font-size="13" lengthAdjust="spacing" textLength="47.4487" x="510.23" y="89.1938">defines</text></g><!--link AttrSet to AttrSetMember--><g class="link" data-entity-1="AttrSet" data-entity-2="AttrSetMember" data-source-line="92" data-uid="lnk16" id="link_AttrSet_AttrSetMember"><path codeLine="92" d="M584.32,347.1169 C584.32,384.1369 584.32,408.8369 584.32,445.8369" fill="none" id="AttrSet-AttrSetMember" style="stroke:#181818;stroke-width:1;"/><line style="stroke:#181818;stroke-width:1;" x1="580.32" x2="588.32" y1="343.1169" y2="343.1169"/><line style="stroke:#181818;stroke-width:1;" x1="580.32" x2="588.32" y1="346.1169" y2="346.1169"/><line style="stroke:#181818;stroke-width:1;" x1="584.32" x2="584.32" y1="347.1169" y2="339.1169"/><line style="stroke:#181818;stroke-width:1;" x1="584.32" x2="590.32" y1="455.8369" y2="463.8369"/><line style="stroke:#181818;stroke-width:1;" x1="584.32" x2="578.32" y1="455.8369" y2="463.8369"/><line style="stroke:#181818;stroke-width:1;" x1="584.32" x2="584.32" y1="455.8369" y2="463.8369"/><ellipse cx="584.32" cy="449.8369" fill="none" rx="4" ry="4" style="stroke:#181818;stroke-width:1;"/><text fill="#000000" font-family="sans-serif" font-size="13" lengthAdjust="spacing" textLength="44.8145" x="539.32" y="397.5438">groups</text></g><!--link AttrDef to AttrSetMember--><g class="link" data-entity-1="AttrDef" data-entity-2="AttrSetMember" data-source-line="93" data-uid="lnk17" id="link_AttrDef_AttrSetMember"><path codeLine="93" d="M479.73,363.5069 C479.73,398.0669 479.73,413.8169 479.73,445.5769" fill="none" id="AttrDef-AttrSetMember" style="stroke:#181818;stroke-width:1;"/><line style="stroke:#181818;stroke-width:1;" x1="475.73" x2="483.73" y1="359.5069" y2="359.5069"/><line style="stroke:#181818;stroke-width:1;" x1="475.73" x2="483.73" y1="362.5069" y2="362.5069"/><line style="stroke:#181818;stroke-width:1;" x1="479.73" x2="479.73" y1="363.5069" y2="355.5069"/><line style="stroke:#181818;stroke-width:1;" x1="479.73" x2="485.73" y1="455.5769" y2="463.5769"/><line style="stroke:#181818;stroke-width:1;" x1="479.73" x2="473.73" y1="455.5769" y2="463.5769"/><line style="stroke:#181818;stroke-width:1;" x1="479.73" x2="479.73" y1="455.5769" y2="463.5769"/><ellipse cx="479.73" cy="449.5769" fill="none" rx="4" ry="4" style="stroke:#181818;stroke-width:1;"/><text fill="#000000" font-family="sans-serif" font-size="13" lengthAdjust="spacing" textLength="71.335" x="407.73" y="405.6038">included in</text></g><!--link Product to AttrVal--><g class="link" data-entity-1="Product" data-entity-2="AttrVal" data-source-line="95" data-uid="lnk18" id="link_Product_AttrVal"><path codeLine="95" d="M308.49,360.1269 C322.62,360.1269 326.07,360.1269 326.07,360.1269 C326.07,360.1269 326.07,522.1369 326.07,626.9069" fill="none" id="Product-AttrVal" style="stroke:#181818;stroke-width:1;"/><line style="stroke:#181818;stroke-width:1;" x1="304.49" x2="304.49" y1="364.1269" y2="356.1269"/><line style="stroke:#181818;stroke-width:1;" x1="307.49" x2="307.49" y1="364.1269" y2="356.1269"/><line style="stroke:#181818;stroke-width:1;" x1="308.49" x2="300.49" y1="360.1269" y2="360.1269"/><line style="stroke:#181818;stroke-width:1;" x1="326.07" x2="332.07" y1="636.9069" y2="644.9069"/><line style="stroke:#181818;stroke-width:1;" x1="326.07" x2="320.07" y1="636.9069" y2="644.9069"/><line style="stroke:#181818;stroke-width:1;" x1="326.07" x2="326.07" y1="636.9069" y2="644.9069"/><ellipse cx="326.07" cy="630.9069" fill="none" rx="4" ry="4" style="stroke:#181818;stroke-width:1;"/><text fill="#000000" font-family="sans-serif" font-size="13" lengthAdjust="spacing" textLength="22.9785" x="327.07" y="485.7838">has</text></g><!--link Variant to AttrVal--><g class="link" data-entity-1="Variant" data-entity-2="AttrVal" data-source-line="96" data-uid="lnk19" id="link_Variant_AttrVal"><path codeLine="96" d="M266.21,585.5669 C266.21,606.9969 266.21,604.9669 266.21,626.9569" fill="none" id="Variant-AttrVal" style="stroke:#181818;stroke-width:1;"/><line style="stroke:#181818;stroke-width:1;" x1="262.21" x2="270.21" y1="581.5669" y2="581.5669"/><line style="stroke:#181818;stroke-width:1;" x1="262.21" x2="270.21" y1="584.5669" y2="584.5669"/><line style="stroke:#181818;stroke-width:1;" x1="266.21" x2="266.21" y1="585.5669" y2="577.5669"/><line style="stroke:#181818;stroke-width:1;" x1="266.21" x2="272.21" y1="636.9569" y2="644.9569"/><line style="stroke:#181818;stroke-width:1;" x1="266.21" x2="260.21" y1="636.9569" y2="644.9569"/><line style="stroke:#181818;stroke-width:1;" x1="266.21" x2="266.21" y1="636.9569" y2="644.9569"/><ellipse cx="266.21" cy="630.9569" fill="none" rx="4" ry="4" style="stroke:#181818;stroke-width:1;"/><text fill="#000000" font-family="sans-serif" font-size="13" lengthAdjust="spacing" textLength="64.3525" x="201.21" y="607.3338">may have</text></g><!--link Store to StoreProduct--><g class="link" data-entity-1="Store" data-entity-2="StoreProduct" data-source-line="98" data-uid="lnk20" id="link_Store_StoreProduct"><path codeLine="98" d="M83.93,387.7469 C83.93,407.5069 83.93,402.2269 83.93,421.2669" fill="none" id="Store-StoreProduct" style="stroke:#181818;stroke-width:1;"/><line style="stroke:#181818;stroke-width:1;" x1="79.93" x2="87.93" y1="383.7469" y2="383.7469"/><line style="stroke:#181818;stroke-width:1;" x1="79.93" x2="87.93" y1="386.7469" y2="386.7469"/><line style="stroke:#181818;stroke-width:1;" x1="83.93" x2="83.93" y1="387.7469" y2="379.7469"/><line style="stroke:#181818;stroke-width:1;" x1="83.93" x2="89.93" y1="431.2669" y2="439.2669"/><line style="stroke:#181818;stroke-width:1;" x1="83.93" x2="77.93" y1="431.2669" y2="439.2669"/><line style="stroke:#181818;stroke-width:1;" x1="83.93" x2="83.93" y1="431.2669" y2="439.2669"/><ellipse cx="83.93" cy="425.2669" fill="none" rx="4" ry="4" style="stroke:#181818;stroke-width:1;"/><text fill="#000000" font-family="sans-serif" font-size="13" lengthAdjust="spacing" textLength="39.7808" x="43.93" y="405.5738">config</text></g><!--link Product to StoreProduct--><g class="link" data-entity-1="Product" data-entity-2="StoreProduct" data-source-line="99" data-uid="lnk21" id="link_Product_StoreProduct"><path codeLine="99" d="M230.52,371.6469 C230.52,411.2469 230.52,444.1269 230.52,444.1269 C230.52,444.1269 203.73,444.1269 163.67,444.1269" fill="none" id="Product-StoreProduct" style="stroke:#181818;stroke-width:1;"/><line style="stroke:#181818;stroke-width:1;" x1="226.52" x2="234.52" y1="367.6469" y2="367.6469"/><line style="stroke:#181818;stroke-width:1;" x1="226.52" x2="234.52" y1="370.6469" y2="370.6469"/><line style="stroke:#181818;stroke-width:1;" x1="230.52" x2="230.52" y1="371.6469" y2="363.6469"/><line style="stroke:#181818;stroke-width:1;" x1="153.67" x2="145.67" y1="444.1269" y2="450.1269"/><line style="stroke:#181818;stroke-width:1;" x1="153.67" x2="145.67" y1="444.1269" y2="438.1269"/><line style="stroke:#181818;stroke-width:1;" x1="153.67" x2="145.67" y1="444.1269" y2="444.1269"/><ellipse cx="159.67" cy="444.1269" fill="none" rx="4" ry="4" style="stroke:#181818;stroke-width:1;"/><text fill="#000000" font-family="sans-serif" font-size="13" lengthAdjust="spacing" textLength="53.3838" x="174.33" y="440.1938">mapped</text></g><!--SRC=[ZLHBQzmm4BxxLmmvb9PYUjzRI7jh892IgvcLPdU7jIKZoIucwN-lh8TVkuPSRCr3tpSp-YJ7hYRuGmgLWr_basuQCeAWX4VPen8auGaTrleCN-2vgnsNhquRWg-_zPa5rj-AmbvPjMYmWPeLkQ4bqCPTT56GSkm6U8Zu3u0sKxqN0D_11QDYwQsoz1-53VcVq9AAV_F-IFa3mlzaTCAAxWXbn_K2QGaTu2PmgHjavHUrzlK73vtGjrQ9pXXIOXYtNwYXwah3iemNesKd8dTQ9_OsMZlyzjhvxn4jLQc6d3yEQqnmw3fxX-eD3UV9fNLYxAErmxYg9zBVSZmwP_ZOEVf99rRiMAj0DFgzAn5XplhSSBrOObVtY5x9JGn-dO-Ezje8e3j0pzGSoIpXeYU01gG9TzE2zUgij95axanyedZ3kgC9tblJuBt_CsDVdT2cX01oe_2blfQEkQMLgcR5htZPLZrRFWPfwvwCOKbLQrYi77cswK9-V9IbVazNwW0Nj9j8hkK0-g-oHJPJD8ipxjnipO8wZ3VDFn7sJdoKmnpFddL2Ek03d8tksfWrukvaiH9r9_qBvc_xjjvyfh7UNFrDiC719_HK574moodD0n5QdVYyfTWaDTYs9Fy3]--></g></svg>